<svg xmlns="http://www.w3.org/2000/svg" viewBox="0 0 516.82 314.3" width="484.82" height="282.3">
  <defs>
    <style>
      @import url('https://fonts.googleapis.com/css2?family=Caveat+Brush&amp;family=Source+Code+Pro&amp;family=Source+Sans+Pro&amp;family=Source+Serif+Pro&amp;display=swap');
    </style>
  </defs>
  <g id="f3b255a5-3d4f-45e8-0a90-af7a422c4ddc_svg" class="tl-centered-g" transform="translate(22.38, 16) rotate(0, 236.54, 1.62)">
    <rect x="2.11" y="2.11" width="470.97" height="1.12" fill="none" stroke-width="4.23" stroke="none" pointer-events="all" />
    <g pointer-events="stroke">
      <line x1="2.11" y1="2.11" x2="470.97" y2="2.11" stroke="#1c7ed6" stroke-width="4.23" stroke-linecap="round" stroke-dasharray="6.47 6.55" stroke-dashoffset="3.23" />
      <line x1="470.97" y1="2.11" x2="470.97" y2="1.12" stroke="#1c7ed6" stroke-width="4.23" stroke-linecap="round" stroke-dasharray="6.47 6.47" stroke-dashoffset="3.23" />
      <line x1="470.97" y1="1.12" x2="2.11" y2="1.12" stroke="#1c7ed6" stroke-width="4.23" stroke-linecap="round" stroke-dasharray="6.47 6.55" stroke-dashoffset="3.23" />
      <line x1="2.11" y1="1.12" x2="2.11" y2="2.11" stroke="#1c7ed6" stroke-width="4.23" stroke-linecap="round" stroke-dasharray="6.47 6.47" stroke-dashoffset="3.23" />
    </g>
  </g>
  <g id="1bce866f-4156-4c37-238f-8995a146c0b4_svg" class="tl-centered-g" transform="translate(496.78000000000003, 19.86) rotate(0, 2.02, 139.22)">
    <rect x="2.11" y="2.11" width="1.92" height="276.32" fill="none" stroke-width="4.23" stroke="none" pointer-events="all" />
    <g pointer-events="stroke">
      <line x1="2.11" y1="2.11" x2="1.92" y2="2.11" stroke="#1c7ed6" stroke-width="4.23" stroke-linecap="round" stroke-dasharray="6.47 6.47" stroke-dashoffset="3.23" />
      <line x1="1.92" y1="2.11" x2="1.92" y2="276.32" stroke="#1c7ed6" stroke-width="4.23" stroke-linecap="round" stroke-dasharray="6.47 6.58" stroke-dashoffset="3.23" />
      <line x1="1.92" y1="276.32" x2="2.11" y2="276.32" stroke="#1c7ed6" stroke-width="4.23" stroke-linecap="round" stroke-dasharray="6.47 6.47" stroke-dashoffset="3.23" />
      <line x1="2.11" y1="276.32" x2="2.11" y2="2.11" stroke="#1c7ed6" stroke-width="4.23" stroke-linecap="round" stroke-dasharray="6.47 6.58" stroke-dashoffset="3.23" />
    </g>
  </g>
  <g id="4a7ea5f9-ad33-4bba-24bd-500ae3ea802f_svg" class="tl-centered-g" transform="translate(16, 16.31) rotate(0, 2.26, 140.09)">
    <rect x="2.11" y="2.11" width="2.40" height="278.06" fill="none" stroke-width="4.23" stroke="none" pointer-events="all" />
    <g pointer-events="stroke">
      <line x1="2.11" y1="2.11" x2="2.40" y2="2.11" stroke="#1c7ed6" stroke-width="4.23" stroke-linecap="round" stroke-dasharray="6.47 6.47" stroke-dashoffset="3.23" />
      <line x1="2.40" y1="2.11" x2="2.40" y2="278.06" stroke="#1c7ed6" stroke-width="4.23" stroke-linecap="round" stroke-dasharray="6.47 6.66" stroke-dashoffset="3.23" />
      <line x1="2.40" y1="278.06" x2="2.11" y2="278.06" stroke="#1c7ed6" stroke-width="4.23" stroke-linecap="round" stroke-dasharray="6.47 6.47" stroke-dashoffset="3.23" />
      <line x1="2.11" y1="278.06" x2="2.11" y2="2.11" stroke="#1c7ed6" stroke-width="4.23" stroke-linecap="round" stroke-dasharray="6.47 6.66" stroke-dashoffset="3.23" />
    </g>
  </g>
  <g id="8b4b594b-882b-4ff7-0a35-52133af8c22a_svg" class="tl-centered-g" transform="translate(25.29, 293.04) rotate(0, 233.90, 2.13)">
    <rect x="2.11" y="2.11" width="465.69" height="2.14" fill="none" stroke-width="4.23" stroke="none" pointer-events="all" />
    <g pointer-events="stroke">
      <line x1="2.11" y1="2.11" x2="465.69" y2="2.11" stroke="#1c7ed6" stroke-width="4.23" stroke-linecap="round" stroke-dasharray="6.47 6.77" stroke-dashoffset="3.23" />
      <line x1="465.69" y1="2.11" x2="465.69" y2="2.14" stroke="#1c7ed6" stroke-width="4.23" stroke-linecap="round" stroke-dasharray="6.47 6.47" stroke-dashoffset="3.23" />
      <line x1="465.69" y1="2.14" x2="2.11" y2="2.14" stroke="#1c7ed6" stroke-width="4.23" stroke-linecap="round" stroke-dasharray="6.47 6.77" stroke-dashoffset="3.23" />
      <line x1="2.11" y1="2.14" x2="2.11" y2="2.11" stroke="#1c7ed6" stroke-width="4.23" stroke-linecap="round" stroke-dasharray="6.47 6.47" stroke-dashoffset="3.23" />
    </g>
  </g>
  <g id="d152e8fc-472c-4c2e-1cc4-a616ca1973d3_svg" class="tl-centered-g" transform="translate(216.23331591145816, 295.07) rotate(0, 0.5, 0.5)">
    <g pointer-events="none" opacity="1">
      <path d="M 0.87,0.5446581987385204 L 1,1 0.54,0.8779915320718538" fill="none" stroke="#1c7ed6" stroke-width="4.23" stroke-dashoffset="none" stroke-dasharray="none" stroke-linecap="round" stroke-linejoin="round" pointer-events="stroke" />
    </g>
  </g>
  <g id="f0164826-7d27-40cb-34d8-8d3d35d207f5_svg" class="tl-centered-g" transform="translate(50.86, 134.90) rotate(0, 46.06, 19.35)">
    <path d="M 64.03,1.38 Q 64.03,1.38 68.42,1.44 72.80,1.51 78.31,1.59 83.82,1.67 86.72,3.18 89.61,4.69 90.33,6.55 91.06,8.41 91.23,10.35 91.40,12.30 91.42,14.27 91.45,16.23 91.44,18.21 91.44,20.18 91.42,22.16 91.40,24.13 91.38,26.11 91.36,28.09 91.34,30.06 91.32,32.04 89.83,34.03 88.33,36.03 83.60,36.57 78.86,37.11 73.30,37.28 67.74,37.44 61.96,37.52 56.19,37.59 50.36,37.64 44.54,37.69 38.70,37.74 32.86,37.78 27.01,37.83 21.17,37.87 15.33,37.91 9.48,37.95 6.50,36.47 3.52,34.99 2.74,33.05 1.96,31.10 1.74,29.04 1.52,26.97 1.45,24.88 1.37,22.78 1.33,20.68 1.29,18.57 1.26,16.47 1.23,14.36 1.21,12.26 1.18,10.15 1.15,8.05 1.13,5.94 2.61,3.91 4.09,1.89 8.86,1.44 13.63,0.98 19.23,0.93 24.84,0.88 30.66,0.94 36.48,0.99 42.35,1.07 48.22,1.15 54.11,1.23 60.00,1.32 67.90,1.43" fill="#fbd3d6" radius="2" stroke="none" pointer-events="all" />
    <path d="M 64.04,0.10 Q 64.04,0.10 68.44,0.07 72.83,0.04 78.38,0.04 83.93,0.04 87.25,1.74 90.57,3.44 91.50,5.67 92.43,7.89 92.55,10.04 92.67,12.19 92.61,14.20 92.55,16.22 92.54,18.20 92.53,20.19 92.60,22.17 92.68,24.15 92.75,26.12 92.83,28.10 92.87,30.17 92.91,32.24 91.10,34.73 89.30,37.22 84.16,37.89 79.03,38.56 73.40,38.64 67.78,38.72 61.99,38.70 56.21,38.69 50.38,38.74 44.55,38.79 38.71,38.92 32.87,39.06 27.02,39.20 21.18,39.33 15.30,39.46 9.41,39.58 6.00,37.92 2.58,36.25 1.59,33.94 0.60,31.63 0.42,29.37 0.25,27.11 0.27,24.96 0.28,22.82 0.24,20.71 0.20,18.59 0.08,16.49 -0.03,14.38 -0.15,12.28 -0.27,10.17 -0.36,7.97 -0.45,5.76 1.35,3.23 3.16,0.69 8.32,0.11 13.49,-0.46 19.16,-0.42 24.83,-0.38 30.66,-0.24 36.48,-0.09 42.36,-0.02 48.24,0.05 54.13,0.05 60.01,0.04 67.92,0.06 75.83,0.09 76.06,0.13 76.30,0.17 76.51,0.28 76.71,0.40 76.87,0.57 77.03,0.75 77.13,0.96 77.23,1.18 77.25,1.42 77.27,1.65 77.22,1.88 77.16,2.11 77.04,2.31 76.91,2.51 76.73,2.67 76.55,2.82 76.32,2.90 76.10,2.98 75.87,2.99 75.63,3.00 75.40,2.94 75.17,2.87 74.98,2.73 74.79,2.60 74.65,2.41 74.51,2.22 74.43,1.99 74.36,1.77 74.36,1.53 74.37,1.29 74.45,1.07 74.53,0.85 74.67,0.66 74.82,0.47 75.02,0.34 75.21,0.21 75.44,0.15 75.67,0.09 75.91,0.11 76.15,0.12 76.36,0.22 76.58,0.31 76.76,0.46 76.94,0.62 77.06,0.82 77.18,1.03 77.23,1.26 77.27,1.49 77.24,1.73 77.21,1.96 77.11,2.18 77.01,2.39 76.84,2.56 76.68,2.73 76.47,2.84 76.26,2.94 76.02,2.98 75.79,3.01 75.79,3.01 75.79,3.01 67.88,2.80 59.98,2.60 54.09,2.42 48.21,2.24 42.34,2.16 36.47,2.08 30.66,2.12 24.85,2.16 19.31,2.30 13.76,2.44 9.40,2.76 5.03,3.09 3.87,4.60 2.71,6.12 2.68,8.13 2.64,10.13 2.58,12.24 2.51,14.35 2.45,16.45 2.39,18.55 2.43,20.65 2.46,22.74 2.63,24.79 2.79,26.84 3.06,28.71 3.32,30.57 3.89,32.15 4.46,33.74 7.00,35.03 9.55,36.32 15.35,36.36 21.16,36.40 27.00,36.45 32.85,36.50 38.69,36.55 44.53,36.60 50.35,36.55 56.18,36.50 61.94,36.33 67.70,36.17 73.20,35.91 78.70,35.65 83.03,35.24 87.37,34.83 88.55,33.33 89.74,31.83 89.82,29.95 89.90,28.07 90.01,26.10 90.12,24.12 90.23,22.15 90.34,20.18 90.35,18.21 90.36,16.25 90.24,14.33 90.12,12.41 89.91,10.66 89.69,8.92 89.17,7.43 88.66,5.94 86.19,4.62 83.72,3.30 78.25,3.13 72.78,2.97 68.39,2.81 64.01,2.65 63.85,2.63 63.70,2.61 63.56,2.55 63.41,2.50 63.29,2.41 63.16,2.32 63.06,2.20 62.96,2.09 62.89,1.95 62.82,1.81 62.79,1.66 62.75,1.51 62.76,1.36 62.76,1.20 62.80,1.05 62.84,0.90 62.91,0.77 62.98,0.63 63.09,0.52 63.19,0.41 63.32,0.32 63.45,0.23 63.59,0.18 63.74,0.13 63.89,0.11 Z" fill="#ff2133" stroke="#ff2133" stroke-width="2" pointer-events="all" opacity="1" />
  </g>
  <g id="c41b8ea3-15aa-4c5a-3056-4a1d57d73ec4_svg" class="tl-centered-g" transform="translate(381.25, 43.37) rotate(0, 46.06, 19.35)">
    <path d="M 1.30,13.43 Q 1.30,13.43 1.33,11.90 1.36,10.37 1.41,8.44 1.45,6.52 2.95,4.54 4.45,2.56 9.20,2.06 13.95,1.56 19.53,1.43 25.11,1.31 30.91,1.28 36.70,1.25 42.54,1.24 48.39,1.24 54.25,1.24 60.11,1.24 65.97,1.25 71.84,1.25 77.70,1.26 83.57,1.26 86.55,2.75 89.54,4.24 90.29,6.10 91.05,7.95 91.23,9.90 91.42,11.84 91.46,13.81 91.50,15.78 91.50,17.76 91.51,19.73 91.50,21.71 91.49,23.69 91.49,25.67 91.48,27.64 91.47,29.62 91.46,31.60 89.97,33.59 88.47,35.59 83.70,36.15 78.92,36.72 73.31,36.92 67.70,37.12 61.87,37.22 56.05,37.33 50.17,37.42 44.29,37.50 38.39,37.58 32.50,37.65 26.60,37.73 20.70,37.80 14.80,37.88 8.90,37.96 5.91,36.48 2.91,35.01 2.18,33.11 1.45,31.20 1.30,29.18 1.14,27.16 1.14,25.11 1.13,23.06 1.16,21.01 1.19,18.95 1.23,16.90 1.27,14.84 1.33,12.08" fill="#e2daf8" radius="2" stroke="none" pointer-events="all" />
    <path d="M 0.02,13.41 Q 0.02,13.41 -0.03,11.87 -0.09,10.34 -0.11,8.32 -0.13,6.30 1.68,3.83 3.49,1.36 8.64,0.73 13.80,0.10 19.44,0.06 25.08,0.03 30.89,0.09 36.69,0.16 42.54,0.15 48.39,0.15 54.25,0.06 60.11,-0.02 65.98,-0.11 71.84,-0.20 77.74,-0.28 83.65,-0.36 87.06,1.30 90.47,2.98 91.44,5.20 92.41,7.41 92.55,9.57 92.69,11.72 92.64,13.74 92.59,15.76 92.59,17.75 92.60,19.73 92.69,21.71 92.77,23.69 92.86,25.67 92.94,27.65 92.99,29.72 93.04,31.80 91.24,34.29 89.44,36.78 84.27,37.48 79.10,38.17 73.42,38.28 67.74,38.40 61.91,38.41 56.07,38.42 50.18,38.51 44.30,38.59 38.41,38.76 32.51,38.93 26.62,39.10 20.72,39.27 14.78,39.43 8.84,39.59 5.41,37.92 1.97,36.26 1.03,33.98 0.08,31.71 -0.01,29.48 -0.12,27.26 -0.04,25.16 0.04,23.07 0.07,21.00 0.10,18.94 0.05,16.88 -0.00,14.82 -0.03,12.05 -0.07,9.29 -0.02,9.06 0.01,8.82 0.12,8.62 0.24,8.41 0.42,8.25 0.59,8.09 0.81,8.00 1.02,7.90 1.26,7.88 1.50,7.86 1.73,7.91 1.96,7.97 2.16,8.10 2.36,8.22 2.51,8.41 2.66,8.59 2.74,8.81 2.82,9.03 2.83,9.27 2.84,9.51 2.77,9.73 2.70,9.96 2.57,10.15 2.43,10.35 2.24,10.49 2.05,10.63 1.82,10.70 1.59,10.77 1.36,10.76 1.12,10.76 0.90,10.68 0.67,10.60 0.49,10.45 0.30,10.30 0.17,10.10 0.05,9.91 -0.00,9.68 -0.06,9.45 -0.04,9.21 -0.03,8.97 0.06,8.76 0.15,8.54 0.31,8.36 0.46,8.18 0.67,8.07 0.87,7.95 1.11,7.90 1.34,7.86 1.57,7.89 1.81,7.92 2.02,8.02 2.23,8.12 2.40,8.29 2.57,8.46 2.68,8.67 2.78,8.88 2.82,9.12 2.85,9.35 2.85,9.35 2.85,9.35 2.70,12.11 2.55,14.87 2.42,16.92 2.28,18.97 2.25,21.02 2.22,23.06 2.32,25.06 2.42,27.06 2.62,28.88 2.82,30.69 3.34,32.23 3.86,33.77 6.41,35.05 8.96,36.32 14.82,36.33 20.68,36.34 26.58,36.36 32.48,36.37 38.37,36.39 44.27,36.41 50.15,36.32 56.03,36.24 61.84,36.04 67.65,35.84 73.20,35.55 78.75,35.26 83.13,34.83 87.50,34.40 88.69,32.90 89.87,31.40 89.94,29.52 90.01,27.64 90.11,25.66 90.22,23.68 90.31,21.71 90.41,19.74 90.41,17.77 90.41,15.80 90.28,13.88 90.15,11.96 89.92,10.22 89.69,8.48 89.15,6.99 88.60,5.51 86.05,4.20 83.49,2.89 77.66,2.80 71.84,2.72 65.97,2.62 60.11,2.52 54.25,2.43 48.39,2.33 42.55,2.34 36.70,2.34 30.92,2.46 25.14,2.58 19.62,2.80 14.10,3.01 9.75,3.39 5.40,3.76 4.22,5.25 3.03,6.74 2.93,8.57 2.83,10.40 2.70,11.93 2.58,13.46 2.56,13.61 2.53,13.77 2.48,13.91 2.42,14.05 2.33,14.18 2.24,14.30 2.12,14.40 2.00,14.50 1.87,14.57 1.73,14.64 1.58,14.67 1.43,14.71 1.27,14.70 1.12,14.70 0.97,14.66 0.82,14.62 0.69,14.54 0.55,14.47 0.44,14.37 0.33,14.26 0.24,14.13 0.16,14.00 0.10,13.86 0.05,13.71 0.04,13.56 Z" fill="#7746f1" stroke="#7746f1" stroke-width="2" pointer-events="all" opacity="1" />
  </g>
  <g id="e4510de7-b515-4be4-18c2-d6f8b8ca31b6_svg" class="tl-centered-g" transform="translate(381.59, 115.69) rotate(0, 46.06, 19.35)">
    <path d="M 64.23,1.40 Q 64.23,1.40 68.62,1.46 73.00,1.52 78.51,1.59 84.01,1.66 86.91,3.17 89.80,4.68 90.53,6.54 91.25,8.41 91.42,10.37 91.60,12.33 91.63,14.31 91.66,16.30 91.65,18.29 91.65,20.28 91.63,22.27 91.62,24.26 91.60,26.25 91.58,28.24 91.57,30.23 91.55,32.22 90.06,34.22 88.56,36.22 83.82,36.73 79.08,37.24 73.50,37.37 67.93,37.50 62.15,37.54 56.37,37.58 50.53,37.59 44.70,37.60 38.85,37.60 33.00,37.61 27.14,37.61 21.29,37.62 15.43,37.62 9.58,37.62 6.60,36.13 3.61,34.64 2.84,32.72 2.07,30.80 1.86,28.77 1.65,26.73 1.59,24.67 1.52,22.61 1.49,20.54 1.46,18.48 1.44,16.41 1.42,14.34 1.41,12.27 1.39,10.20 1.37,8.13 1.36,6.06 2.84,4.04 4.33,2.02 9.10,1.56 13.86,1.11 19.46,1.05 25.07,0.99 30.88,1.03 36.70,1.07 42.57,1.14 48.44,1.20 54.32,1.28 60.20,1.35 68.10,1.45" fill="#e2daf8" radius="2" stroke="none" pointer-events="all" />
    <path d="M 64.25,0.12 Q 64.25,0.12 68.64,0.09 73.02,0.05 78.57,0.04 84.12,0.03 87.44,1.73 90.76,3.43 91.69,5.66 92.62,7.90 92.75,10.06 92.87,12.22 92.81,14.25 92.75,16.28 92.74,18.28 92.74,20.28 92.82,22.27 92.90,24.27 92.97,26.26 93.05,28.25 93.09,30.34 93.14,32.42 91.33,34.92 89.52,37.41 84.37,38.05 79.23,38.70 73.60,38.74 67.96,38.78 62.17,38.73 56.38,38.67 50.54,38.68 44.70,38.69 38.85,38.79 33.00,38.89 27.14,38.98 21.29,39.08 15.40,39.17 9.50,39.25 6.09,37.58 2.68,35.90 1.69,33.62 0.71,31.33 0.54,29.10 0.38,26.86 0.40,24.76 0.43,22.65 0.40,20.57 0.37,18.49 0.26,16.42 0.15,14.35 0.04,12.28 -0.06,10.21 -0.14,8.04 -0.22,5.87 1.58,3.35 3.39,0.82 8.56,0.23 13.72,-0.34 19.39,-0.31 25.05,-0.28 30.88,-0.15 36.70,-0.01 42.58,0.04 48.45,0.11 54.33,0.09 60.22,0.07 68.12,0.08 76.03,0.09 76.26,0.13 76.49,0.17 76.70,0.29 76.91,0.40 77.07,0.57 77.23,0.75 77.33,0.97 77.42,1.18 77.45,1.42 77.47,1.65 77.41,1.88 77.36,2.11 77.24,2.32 77.11,2.52 76.93,2.67 76.75,2.82 76.52,2.90 76.30,2.99 76.07,3.00 75.83,3.01 75.60,2.94 75.38,2.88 75.18,2.74 74.99,2.60 74.85,2.41 74.70,2.22 74.63,2.00 74.56,1.77 74.56,1.54 74.57,1.30 74.64,1.08 74.72,0.85 74.87,0.67 75.01,0.48 75.21,0.35 75.41,0.22 75.64,0.16 75.87,0.10 76.10,0.11 76.34,0.13 76.56,0.22 76.78,0.31 76.96,0.47 77.14,0.62 77.25,0.83 77.37,1.03 77.42,1.26 77.47,1.49 77.44,1.73 77.41,1.97 77.31,2.18 77.21,2.39 77.04,2.56 76.88,2.73 76.67,2.84 76.46,2.95 76.22,2.98 75.99,3.02 75.99,3.02 75.99,3.02 68.09,2.82 60.19,2.63 54.30,2.46 48.42,2.30 42.56,2.23 36.69,2.16 30.88,2.21 25.08,2.26 19.54,2.41 14.00,2.56 9.64,2.89 5.27,3.22 4.11,4.73 2.94,6.24 2.90,8.21 2.86,10.19 2.78,12.26 2.70,14.33 2.63,16.39 2.56,18.46 2.58,20.52 2.61,22.58 2.77,24.59 2.92,26.60 3.18,28.44 3.43,30.27 3.99,31.83 4.55,33.38 7.10,34.69 9.66,35.99 15.47,36.07 21.29,36.15 27.14,36.24 32.99,36.33 38.84,36.42 44.69,36.51 50.53,36.49 56.36,36.48 62.13,36.35 67.90,36.23 73.41,36.00 78.92,35.78 83.26,35.40 87.60,35.02 88.78,33.52 89.96,32.02 90.04,30.12 90.12,28.23 90.23,26.24 90.34,24.25 90.45,22.26 90.55,20.27 90.56,18.29 90.56,16.31 90.44,14.38 90.32,12.44 90.10,10.68 89.88,8.92 89.37,7.42 88.85,5.92 86.38,4.61 83.91,3.29 78.45,3.13 72.99,2.98 68.60,2.83 64.21,2.68 64.06,2.66 63.91,2.64 63.77,2.58 63.62,2.53 63.50,2.44 63.37,2.35 63.27,2.23 63.17,2.11 63.10,1.98 63.03,1.84 62.99,1.69 62.96,1.54 62.96,1.39 62.96,1.23 63.00,1.08 63.04,0.93 63.11,0.80 63.19,0.66 63.29,0.55 63.40,0.43 63.52,0.35 63.65,0.26 63.80,0.21 63.94,0.16 64.09,0.14 Z" fill="#7746f1" stroke="#7746f1" stroke-width="2" pointer-events="all" opacity="1" />
  </g>
  <g id="3ad4390e-3d64-4808-3b38-aaee3d677506_svg" class="tl-centered-g" transform="translate(208.86, 79.62) rotate(0, 46.06, 19.35)">
    <path d="M 0.80,12.83 Q 0.80,12.83 0.75,11.24 0.69,9.65 0.63,7.66 0.56,5.68 2.03,3.68 3.51,1.68 8.29,1.23 13.08,0.77 18.71,0.72 24.34,0.66 30.19,0.70 36.03,0.74 41.93,0.81 47.84,0.87 53.75,0.95 59.67,1.02 65.59,1.10 71.50,1.17 77.42,1.25 83.34,1.32 86.34,2.83 89.34,4.34 90.06,6.24 90.77,8.13 90.90,10.13 91.03,12.12 91.01,14.14 90.99,16.16 90.93,18.18 90.87,20.21 90.81,22.24 90.74,24.26 90.67,26.29 90.60,28.32 90.53,30.34 90.46,32.37 88.95,34.38 87.45,36.39 82.76,36.92 78.07,37.45 72.57,37.60 67.06,37.75 61.36,37.81 55.65,37.87 49.89,37.90 44.12,37.94 38.35,37.96 32.58,37.99 26.80,38.01 21.02,38.04 15.24,38.06 9.46,38.09 6.50,36.61 3.53,35.12 2.73,33.16 1.92,31.19 1.66,29.11 1.40,27.02 1.28,24.90 1.16,22.79 1.08,20.66 1.00,18.54 0.92,16.41 0.85,14.28 0.75,11.43" fill="#fbe8d6" radius="2" stroke="none" pointer-events="all" />
    <path d="M -0.47,12.87 Q -0.47,12.87 -0.62,11.29 -0.76,9.70 -0.89,7.61 -1.01,5.51 0.77,2.99 2.57,0.48 7.76,-0.09 12.94,-0.67 18.63,-0.64 24.33,-0.61 30.18,-0.48 36.04,-0.34 41.94,-0.28 47.85,-0.21 53.77,-0.23 59.68,-0.25 65.60,-0.27 71.52,-0.28 77.48,-0.29 83.44,-0.30 86.87,1.40 90.30,3.10 91.22,5.37 92.14,7.63 92.22,9.84 92.30,12.04 92.19,14.10 92.08,16.17 92.02,18.20 91.97,20.24 91.99,22.27 92.02,24.30 92.04,26.34 92.07,28.37 92.06,30.48 92.05,32.60 90.23,35.09 88.41,37.58 83.32,38.24 78.23,38.90 72.67,38.97 67.10,39.03 61.38,39.00 55.66,38.96 49.89,39.00 44.13,39.03 38.36,39.15 32.58,39.27 26.80,39.39 21.03,39.50 15.21,39.61 9.39,39.72 6.00,38.06 2.60,36.39 1.58,34.06 0.56,31.74 0.35,29.46 0.13,27.18 0.10,25.01 0.07,22.85 -0.00,20.71 -0.09,18.58 -0.25,16.45 -0.42,14.33 -0.61,11.47 -0.80,8.62 -0.77,8.38 -0.74,8.15 -0.63,7.94 -0.53,7.72 -0.36,7.55 -0.20,7.39 0.01,7.28 0.22,7.17 0.45,7.14 0.69,7.11 0.92,7.15 1.15,7.19 1.36,7.31 1.57,7.42 1.73,7.60 1.89,7.77 1.98,7.99 2.08,8.21 2.10,8.44 2.12,8.68 2.06,8.91 2.01,9.14 1.88,9.34 1.75,9.54 1.57,9.69 1.39,9.84 1.16,9.92 0.94,10.01 0.70,10.01 0.47,10.02 0.24,9.95 0.01,9.89 -0.17,9.75 -0.36,9.61 -0.50,9.42 -0.64,9.23 -0.71,9.00 -0.78,8.78 -0.78,8.54 -0.77,8.30 -0.69,8.08 -0.61,7.86 -0.47,7.67 -0.32,7.49 -0.12,7.36 0.07,7.23 0.30,7.17 0.53,7.11 0.76,7.13 1.00,7.15 1.22,7.24 1.44,7.33 1.61,7.49 1.79,7.64 1.91,7.85 2.03,8.06 2.07,8.29 2.12,8.52 2.12,8.52 2.12,8.52 2.12,11.38 2.13,14.24 2.11,16.37 2.09,18.49 2.17,20.61 2.25,22.73 2.46,24.80 2.67,26.86 2.97,28.76 3.28,30.65 3.87,32.25 4.47,33.85 7.00,35.16 9.53,36.46 15.27,36.52 21.01,36.58 26.79,36.64 32.57,36.71 38.34,36.78 44.12,36.84 49.88,36.81 55.64,36.78 61.33,36.63 67.03,36.48 72.47,36.23 77.90,35.99 82.19,35.59 86.48,35.19 87.68,33.67 88.87,32.15 89.01,30.21 89.14,28.27 89.30,26.24 89.46,24.22 89.62,22.20 89.78,20.18 89.84,18.16 89.90,16.15 89.82,14.17 89.75,12.20 89.57,10.42 89.39,8.63 88.89,7.10 88.39,5.58 85.82,4.27 83.25,2.95 77.37,2.79 71.49,2.64 65.57,2.47 59.65,2.30 53.74,2.13 47.82,1.97 41.92,1.90 36.03,1.83 30.19,1.88 24.35,1.94 18.79,2.08 13.22,2.23 8.83,2.56 4.44,2.88 3.29,4.36 2.14,5.84 2.15,7.72 2.16,9.61 2.12,11.19 2.08,12.78 2.06,12.94 2.05,13.09 2.00,13.24 1.95,13.38 1.87,13.51 1.78,13.64 1.67,13.75 1.56,13.85 1.42,13.93 1.29,14.01 1.14,14.05 0.99,14.09 0.84,14.09 0.69,14.10 0.54,14.07 0.38,14.04 0.25,13.97 0.11,13.90 -0.00,13.80 -0.12,13.70 -0.21,13.58 -0.30,13.46 -0.36,13.31 -0.42,13.17 -0.45,13.02 Z" fill="#ff9433" stroke="#ff9433" stroke-width="2" pointer-events="all" opacity="1" />
  </g>
  <g id="05adb501-57d5-43cb-077b-9c1c7f3909cd_svg" class="tl-centered-g" transform="translate(209.38, 193.95) rotate(0, 44.47, 18.91)">
    <path d="M 27.84,37.19 Q 27.84,37.19 23.65,37.26 19.46,37.33 14.20,37.42 8.95,37.51 6.12,36.05 3.29,34.58 2.51,32.71 1.74,30.83 1.50,28.86 1.25,26.88 1.14,24.88 1.02,22.88 0.95,20.87 0.87,18.87 0.80,16.86 0.73,14.85 0.66,12.84 0.59,10.83 0.52,8.82 0.46,6.81 1.93,4.80 3.40,2.80 7.99,2.24 12.57,1.69 17.95,1.50 23.33,1.31 28.91,1.22 34.50,1.13 40.13,1.06 45.76,0.99 51.41,0.92 57.05,0.86 62.70,0.80 68.35,0.74 74.00,0.67 79.66,0.61 82.59,2.09 85.52,3.56 86.29,5.41 87.07,7.26 87.30,9.20 87.52,11.15 87.61,13.11 87.70,15.08 87.75,17.06 87.80,19.03 87.84,21.01 87.88,22.98 87.92,24.96 87.96,26.94 88.00,28.91 88.04,30.89 86.56,32.88 85.08,34.88 80.52,35.46 75.95,36.04 70.60,36.26 65.24,36.47 59.69,36.60 54.13,36.73 48.53,36.83 42.92,36.93 37.30,37.03 31.69,37.13 24.14,37.26" fill="#d0e8ec" radius="2" stroke="none" pointer-events="all" />
    <path d="M 27.86,38.47 Q 27.86,38.47 23.67,38.64 19.49,38.80 14.18,38.97 8.88,39.14 5.61,37.49 2.35,35.85 1.37,33.61 0.39,31.38 0.18,29.21 -0.01,27.04 -0.03,24.99 -0.06,22.94 -0.14,20.93 -0.22,18.91 -0.38,16.90 -0.54,14.89 -0.70,12.88 -0.86,10.88 -0.99,8.76 -1.11,6.64 0.65,4.13 2.43,1.61 7.41,0.92 12.40,0.23 17.84,0.13 23.29,0.03 28.88,0.03 34.48,0.03 40.11,-0.03 45.75,-0.10 51.39,-0.25 57.04,-0.41 62.69,-0.56 68.34,-0.72 74.03,-0.86 79.72,-1.01 83.08,0.63 86.45,2.29 87.43,4.50 88.42,6.71 88.61,8.85 88.79,11.00 88.79,13.02 88.79,15.03 88.84,17.02 88.89,19.00 89.03,20.98 89.16,22.96 89.30,24.93 89.43,26.91 89.53,28.99 89.62,31.07 87.84,33.57 86.06,36.06 81.10,36.78 76.13,37.49 70.71,37.62 65.29,37.75 59.73,37.79 54.16,37.82 48.55,37.92 42.94,38.03 37.33,38.22 31.71,38.41 24.16,38.63 16.62,38.85 16.38,38.81 16.15,38.78 15.94,38.67 15.73,38.56 15.56,38.39 15.40,38.23 15.29,38.01 15.19,37.80 15.16,37.56 15.13,37.33 15.18,37.10 15.22,36.86 15.34,36.66 15.46,36.45 15.64,36.30 15.82,36.14 16.04,36.05 16.26,35.96 16.49,35.94 16.73,35.93 16.96,35.98 17.19,36.04 17.38,36.17 17.58,36.30 17.73,36.49 17.88,36.68 17.96,36.90 18.03,37.12 18.04,37.36 18.04,37.60 17.97,37.82 17.90,38.05 17.76,38.24 17.62,38.43 17.42,38.57 17.23,38.70 17.00,38.77 16.78,38.84 16.54,38.83 16.30,38.82 16.08,38.73 15.86,38.65 15.68,38.50 15.49,38.35 15.37,38.15 15.24,37.95 15.19,37.72 15.13,37.49 15.16,37.25 15.18,37.02 15.27,36.80 15.37,36.58 15.53,36.41 15.69,36.23 15.90,36.12 16.10,36.00 16.34,35.96 16.57,35.92 16.57,35.92 16.57,35.92 24.12,35.88 31.66,35.85 37.28,35.84 42.90,35.84 48.51,35.74 54.11,35.63 59.65,35.42 65.19,35.20 70.48,34.89 75.77,34.58 79.93,34.14 84.10,33.69 85.28,32.20 86.46,30.71 86.48,28.84 86.50,26.97 86.55,24.99 86.61,23.01 86.66,21.04 86.71,19.06 86.66,17.10 86.61,15.13 86.43,13.21 86.25,11.29 85.98,9.55 85.72,7.81 85.15,6.32 84.59,4.83 82.09,3.54 79.59,2.24 73.98,2.22 68.37,2.20 62.72,2.17 57.07,2.14 51.42,2.11 45.78,2.08 40.14,2.15 34.51,2.22 28.95,2.40 23.38,2.59 18.06,2.87 12.75,3.14 8.56,3.56 4.38,3.99 3.21,5.48 2.04,6.97 2.05,8.87 2.06,10.78 2.03,12.79 2.00,14.80 1.98,16.81 1.96,18.82 2.04,20.82 2.12,22.82 2.32,24.77 2.52,26.73 2.81,28.51 3.10,30.29 3.66,31.80 4.23,33.31 6.62,34.60 9.01,35.89 14.23,35.88 19.44,35.87 23.63,35.89 27.82,35.92 27.97,35.93 28.12,35.95 28.27,36.00 28.41,36.05 28.54,36.14 28.67,36.22 28.78,36.34 28.88,36.45 28.95,36.58 29.03,36.72 29.07,36.87 29.11,37.02 29.11,37.17 29.11,37.33 29.08,37.48 29.04,37.63 28.97,37.76 28.90,37.90 28.80,38.02 28.70,38.14 28.58,38.23 28.45,38.32 28.31,38.37 28.17,38.43 28.01,38.45 Z" fill="#0e98ad" stroke="#0e98ad" stroke-width="2" pointer-events="all" opacity="1" />
  </g>
  <g id="368afe15-71a4-41c6-029d-49da1fe09d3f_svg" class="tl-centered-g" transform="translate(382.04, 221.82) rotate(0, 46.54, 21)">
    <path d="M 63.90,0.72 Q 63.90,0.72 68.30,0.65 72.69,0.59 78.21,0.51 83.72,0.43 86.62,1.90 89.51,3.37 90.32,5.51 91.12,7.64 91.39,9.95 91.66,12.25 91.79,14.60 91.92,16.94 92.02,19.30 92.11,21.66 92.20,24.02 92.29,26.38 92.38,28.74 92.46,31.10 92.55,33.46 92.64,35.82 91.17,37.92 89.70,40.01 84.88,40.50 80.06,40.98 74.39,41.06 68.71,41.14 62.82,41.11 56.93,41.09 50.98,41.03 45.03,40.98 39.07,40.92 33.11,40.86 27.14,40.80 21.18,40.74 15.21,40.68 9.24,40.61 6.23,39.11 3.22,37.60 2.44,35.57 1.66,33.53 1.45,31.36 1.23,29.19 1.17,26.99 1.10,24.79 1.07,22.57 1.04,20.36 1.02,18.15 0.99,15.93 0.98,13.72 0.96,11.50 0.94,9.28 0.92,7.07 2.41,5.01 3.89,2.96 8.67,2.37 13.44,1.79 19.05,1.57 24.66,1.36 30.49,1.25 36.32,1.13 42.20,1.04 48.08,0.95 53.97,0.86 59.87,0.77 67.78,0.66" fill="#e3e5e7" radius="2" stroke="none" pointer-events="all" />
    <path d="M 63.88,-0.55 Q 63.88,-0.55 68.28,-0.71 72.67,-0.86 78.23,-1.02 83.79,-1.19 87.13,0.47 90.47,2.14 91.48,4.64 92.49,7.14 92.71,9.62 92.93,12.10 92.97,14.49 93.01,16.88 93.11,19.25 93.21,21.61 93.39,23.97 93.57,26.33 93.75,28.69 93.93,31.05 94.08,33.51 94.22,35.97 92.43,38.58 90.64,41.20 85.42,41.82 80.21,42.44 74.47,42.43 68.73,42.42 62.83,42.30 56.92,42.18 50.97,42.13 45.02,42.07 39.06,42.11 33.09,42.14 27.13,42.17 21.16,42.20 15.16,42.22 9.15,42.25 5.71,40.55 2.27,38.85 1.28,36.45 0.29,34.04 0.12,31.68 -0.03,29.32 -0.01,27.07 0.01,24.82 -0.01,22.60 -0.05,20.38 -0.16,18.16 -0.27,15.94 -0.39,13.73 -0.50,11.51 -0.58,9.20 -0.66,6.89 1.13,4.33 2.92,1.78 8.09,1.06 13.26,0.33 18.94,0.21 24.62,0.08 30.45,0.06 36.29,0.04 42.18,-0.05 48.06,-0.14 53.95,-0.32 59.85,-0.49 67.76,-0.70 75.68,-0.91 75.91,-0.87 76.15,-0.84 76.36,-0.73 76.57,-0.62 76.73,-0.45 76.90,-0.28 77.00,-0.07 77.10,0.14 77.13,0.37 77.16,0.61 77.11,0.84 77.07,1.07 76.95,1.28 76.83,1.48 76.65,1.64 76.47,1.79 76.25,1.88 76.03,1.97 75.80,1.99 75.56,2.01 75.33,1.95 75.10,1.89 74.90,1.76 74.71,1.63 74.56,1.44 74.41,1.25 74.34,1.03 74.26,0.81 74.25,0.57 74.25,0.33 74.32,0.11 74.40,-0.11 74.54,-0.30 74.68,-0.49 74.87,-0.63 75.07,-0.76 75.29,-0.83 75.52,-0.90 75.76,-0.89 75.99,-0.88 76.21,-0.79 76.44,-0.71 76.62,-0.56 76.80,-0.41 76.93,-0.20 77.05,-0.00 77.11,0.22 77.16,0.45 77.14,0.68 77.11,0.92 77.02,1.14 76.92,1.35 76.76,1.53 76.60,1.70 76.39,1.82 76.19,1.93 75.95,1.97 75.72,2.01 75.72,2.01 75.72,2.01 67.80,2.03 59.88,2.05 53.99,2.05 48.09,2.04 42.22,2.13 36.34,2.22 30.52,2.43 24.71,2.64 19.16,2.94 13.62,3.24 9.24,3.69 4.87,4.14 3.69,5.69 2.51,7.25 2.47,9.37 2.42,11.49 2.35,13.70 2.27,15.92 2.20,18.13 2.13,20.35 2.16,22.55 2.19,24.75 2.35,26.91 2.51,29.07 2.77,31.05 3.03,33.02 3.60,34.69 4.17,36.36 6.75,37.67 9.33,38.98 15.26,39.13 21.19,39.27 27.16,39.43 33.12,39.58 39.08,39.74 45.04,39.89 50.99,39.94 56.93,39.99 62.81,39.93 68.69,39.86 74.30,39.69 79.91,39.53 84.34,39.17 88.76,38.82 89.90,37.25 91.05,35.68 91.02,33.42 91.00,31.15 91.01,28.79 91.01,26.43 91.02,24.07 91.02,21.70 90.93,19.35 90.83,17.00 90.61,14.70 90.39,12.40 90.07,10.27 89.75,8.15 89.15,6.38 88.56,4.61 86.11,3.34 83.66,2.06 78.18,2.06 72.71,2.05 68.31,2.02 63.92,1.99 63.77,1.98 63.61,1.96 63.47,1.91 63.32,1.86 63.19,1.77 63.07,1.68 62.96,1.57 62.86,1.46 62.78,1.32 62.71,1.19 62.67,1.04 62.63,0.89 62.63,0.73 62.63,0.58 62.66,0.43 62.70,0.28 62.77,0.14 62.84,0.00 62.94,-0.10 63.04,-0.22 63.16,-0.31 63.29,-0.40 63.43,-0.45 63.58,-0.51 63.73,-0.53 Z" fill="#788492" stroke="#788492" stroke-width="2" pointer-events="all" opacity="1" />
  </g>
  <g id="0b699880-3f36-498e-379c-779f514d27d0_svg" class="tl-centered-g" transform="translate(158.98, 120.80) rotate(0, 16.94, 5.90)">
    <g pointer-events="none" opacity="1">
      <path d="M -0.31,10.91 Q -0.31,10.91 3.69,9.55 7.71,8.19 11.71,6.82 15.72,5.45 19.73,4.08 23.73,2.70 27.73,1.32 31.74,-0.05 31.86,-0.07 31.98,-0.09 32.10,-0.07 32.22,-0.05 32.33,-0.00 32.44,0.05 32.52,0.14 32.61,0.22 32.66,0.33 32.71,0.44 32.73,0.57 32.74,0.69 32.71,0.81 32.69,0.93 32.63,1.03 32.57,1.14 32.47,1.22 32.38,1.30 32.27,1.34 32.16,1.39 32.03,1.40 31.91,1.40 31.79,1.37 31.68,1.34 31.58,1.27 31.47,1.21 31.40,1.11 31.32,1.01 31.28,0.90 31.24,0.78 31.24,0.66 31.24,0.54 31.28,0.42 31.32,0.31 31.39,0.21 31.46,0.11 31.56,0.04 31.66,-0.02 31.78,-0.05 31.90,-0.09 32.02,-0.08 32.14,-0.07 32.25,-0.03 32.37,0.00 32.46,0.08 32.56,0.16 32.62,0.26 32.68,0.37 32.71,0.49 32.74,0.60 32.73,0.73 32.72,0.85 32.67,0.96 32.62,1.07 32.53,1.16 32.45,1.25 32.34,1.31 32.23,1.37 32.23,1.37 32.23,1.37 28.24,2.77 24.25,4.18 20.25,5.59 16.26,7.00 12.27,8.42 8.28,9.84 4.29,11.27 0.31,12.70 0.19,12.72 0.08,12.75 -0.02,12.74 -0.13,12.74 -0.24,12.71 -0.35,12.68 -0.45,12.62 -0.55,12.57 -0.64,12.49 -0.72,12.41 -0.78,12.32 -0.84,12.22 -0.88,12.11 -0.92,12.01 -0.93,11.89 -0.94,11.78 -0.92,11.67 -0.91,11.55 -0.86,11.45 -0.82,11.34 -0.75,11.25 -0.68,11.16 -0.60,11.09 -0.51,11.01 -0.41,10.96 Z" fill="none" stroke-width="8" stroke-dasharray="none" stroke-dashoffset="none" stroke-linecap="round" stroke-linejoin="round" pointer-events="stroke" />
      <path d="M -0.31,10.91 Q -0.31,10.91 3.69,9.55 7.71,8.19 11.71,6.82 15.72,5.45 19.73,4.08 23.73,2.70 27.73,1.32 31.74,-0.05 31.86,-0.07 31.98,-0.09 32.10,-0.07 32.22,-0.05 32.33,-0.00 32.44,0.05 32.52,0.14 32.61,0.22 32.66,0.33 32.71,0.44 32.73,0.57 32.74,0.69 32.71,0.81 32.69,0.93 32.63,1.03 32.57,1.14 32.47,1.22 32.38,1.30 32.27,1.34 32.16,1.39 32.03,1.40 31.91,1.40 31.79,1.37 31.68,1.34 31.58,1.27 31.47,1.21 31.40,1.11 31.32,1.01 31.28,0.90 31.24,0.78 31.24,0.66 31.24,0.54 31.28,0.42 31.32,0.31 31.39,0.21 31.46,0.11 31.56,0.04 31.66,-0.02 31.78,-0.05 31.90,-0.09 32.02,-0.08 32.14,-0.07 32.25,-0.03 32.37,0.00 32.46,0.08 32.56,0.16 32.62,0.26 32.68,0.37 32.71,0.49 32.74,0.60 32.73,0.73 32.72,0.85 32.67,0.96 32.62,1.07 32.53,1.16 32.45,1.25 32.34,1.31 32.23,1.37 32.23,1.37 32.23,1.37 28.24,2.77 24.25,4.18 20.25,5.59 16.26,7.00 12.27,8.42 8.28,9.84 4.29,11.27 0.31,12.70 0.19,12.72 0.08,12.75 -0.02,12.74 -0.13,12.74 -0.24,12.71 -0.35,12.68 -0.45,12.62 -0.55,12.57 -0.64,12.49 -0.72,12.41 -0.78,12.32 -0.84,12.22 -0.88,12.11 -0.92,12.01 -0.93,11.89 -0.94,11.78 -0.92,11.67 -0.91,11.55 -0.86,11.45 -0.82,11.34 -0.75,11.25 -0.68,11.16 -0.60,11.09 -0.51,11.01 -0.41,10.96 Z" fill="#4263eb" stroke="#4263eb" stroke-width="2.11" stroke-dasharray="none" stroke-dashoffset="none" stroke-linecap="round" stroke-linejoin="round" pointer-events="stroke" />
      <path d="M 22.13,-2.2374133271019265 L 33.88,0 26.06,9.055920006231409" fill="none" stroke="#4263eb" stroke-width="4.23" stroke-dashoffset="none" stroke-dasharray="none" stroke-linecap="round" stroke-linejoin="round" pointer-events="stroke" />
    </g>
  </g>
  <g id="96d67d19-a700-4d9d-1913-f7c91ed21030_svg" class="tl-centered-g" transform="translate(158.98, 177.36) rotate(0, 17.2, 6.43)">
    <g pointer-events="none" opacity="1">
      <path d="M 0.32,-0.87 Q 0.32,-0.87 4.38,0.67 8.43,2.23 12.49,3.77 16.54,5.32 20.60,6.86 24.66,8.40 28.72,9.93 32.78,11.47 32.89,11.53 32.99,11.59 33.07,11.68 33.15,11.77 33.20,11.88 33.24,11.99 33.25,12.11 33.26,12.23 33.23,12.35 33.20,12.46 33.14,12.56 33.07,12.66 32.98,12.74 32.88,12.81 32.77,12.85 32.66,12.90 32.54,12.90 32.42,12.90 32.30,12.86 32.19,12.83 32.09,12.76 31.99,12.69 31.92,12.59 31.85,12.49 31.82,12.38 31.78,12.26 31.79,12.14 31.79,12.02 31.83,11.91 31.88,11.79 31.95,11.70 32.03,11.61 32.13,11.54 32.23,11.48 32.35,11.45 32.47,11.42 32.59,11.43 32.71,11.44 32.82,11.49 32.93,11.54 33.02,11.62 33.10,11.70 33.16,11.81 33.22,11.91 33.24,12.03 33.27,12.15 33.25,12.27 33.23,12.39 33.18,12.49 33.12,12.60 33.04,12.69 32.95,12.77 32.84,12.82 32.74,12.88 32.62,12.89 32.50,12.91 32.38,12.88 32.26,12.86 32.26,12.86 32.26,12.86 28.19,11.35 24.12,9.85 20.05,8.34 15.97,6.84 11.90,5.34 7.82,3.85 3.75,2.36 -0.32,0.87 -0.42,0.82 -0.52,0.77 -0.61,0.69 -0.69,0.62 -0.76,0.53 -0.82,0.43 -0.86,0.33 -0.90,0.22 -0.92,0.11 -0.93,0.00 -0.92,-0.10 -0.91,-0.22 -0.87,-0.32 -0.83,-0.43 -0.76,-0.52 -0.70,-0.61 -0.61,-0.69 -0.53,-0.76 -0.43,-0.82 -0.33,-0.87 -0.22,-0.90 -0.11,-0.92 -0.00,-0.93 0.10,-0.93 0.21,-0.90 Z" fill="none" stroke-width="8" stroke-dasharray="none" stroke-dashoffset="none" stroke-linecap="round" stroke-linejoin="round" pointer-events="stroke" />
      <path d="M 0.32,-0.87 Q 0.32,-0.87 4.38,0.67 8.43,2.23 12.49,3.77 16.54,5.32 20.60,6.86 24.66,8.40 28.72,9.93 32.78,11.47 32.89,11.53 32.99,11.59 33.07,11.68 33.15,11.77 33.20,11.88 33.24,11.99 33.25,12.11 33.26,12.23 33.23,12.35 33.20,12.46 33.14,12.56 33.07,12.66 32.98,12.74 32.88,12.81 32.77,12.85 32.66,12.90 32.54,12.90 32.42,12.90 32.30,12.86 32.19,12.83 32.09,12.76 31.99,12.69 31.92,12.59 31.85,12.49 31.82,12.38 31.78,12.26 31.79,12.14 31.79,12.02 31.83,11.91 31.88,11.79 31.95,11.70 32.03,11.61 32.13,11.54 32.23,11.48 32.35,11.45 32.47,11.42 32.59,11.43 32.71,11.44 32.82,11.49 32.93,11.54 33.02,11.62 33.10,11.70 33.16,11.81 33.22,11.91 33.24,12.03 33.27,12.15 33.25,12.27 33.23,12.39 33.18,12.49 33.12,12.60 33.04,12.69 32.95,12.77 32.84,12.82 32.74,12.88 32.62,12.89 32.50,12.91 32.38,12.88 32.26,12.86 32.26,12.86 32.26,12.86 28.19,11.35 24.12,9.85 20.05,8.34 15.97,6.84 11.90,5.34 7.82,3.85 3.75,2.36 -0.32,0.87 -0.42,0.82 -0.52,0.77 -0.61,0.69 -0.69,0.62 -0.76,0.53 -0.82,0.43 -0.86,0.33 -0.90,0.22 -0.92,0.11 -0.93,0.00 -0.92,-0.10 -0.91,-0.22 -0.87,-0.32 -0.83,-0.43 -0.76,-0.52 -0.70,-0.61 -0.61,-0.69 -0.53,-0.76 -0.43,-0.82 -0.33,-0.87 -0.22,-0.90 -0.11,-0.92 -0.00,-0.93 0.10,-0.93 0.21,-0.90 Z" fill="#4263eb" stroke="#4263eb" stroke-width="2.11" stroke-dasharray="none" stroke-dashoffset="none" stroke-linecap="round" stroke-linejoin="round" pointer-events="stroke" />
      <path d="M 26.61,3.421417684431427 L 34.4,12.87 22.32,14.88808435109809" fill="none" stroke="#4263eb" stroke-width="4.23" stroke-dashoffset="none" stroke-dasharray="none" stroke-linecap="round" stroke-linejoin="round" pointer-events="stroke" />
    </g>
  </g>
  <g id="987a2a02-d407-4935-3aa1-fb2d620d0d02_svg" class="tl-centered-g" transform="translate(316.98, 63.97) rotate(0, 24.13, 7.68)">
    <g pointer-events="none" opacity="1">
      <path d="M -0.29,14.42 Q -0.29,14.42 5.50,12.60 11.31,10.79 17.11,8.97 22.91,7.15 28.71,5.32 34.51,3.49 40.31,1.66 46.11,-0.16 46.24,-0.18 46.37,-0.20 46.50,-0.17 46.63,-0.15 46.75,-0.09 46.86,-0.02 46.95,0.06 47.04,0.16 47.09,0.28 47.14,0.40 47.15,0.53 47.17,0.66 47.14,0.79 47.11,0.91 47.04,1.02 46.97,1.14 46.87,1.22 46.76,1.30 46.64,1.35 46.52,1.39 46.39,1.40 46.26,1.40 46.13,1.37 46.01,1.33 45.90,1.25 45.79,1.18 45.72,1.07 45.64,0.97 45.60,0.84 45.56,0.72 45.56,0.59 45.56,0.46 45.61,0.33 45.65,0.21 45.73,0.11 45.81,0.00 45.92,-0.06 46.03,-0.13 46.16,-0.16 46.29,-0.19 46.42,-0.19 46.55,-0.18 46.67,-0.13 46.79,-0.07 46.89,0.00 46.98,0.09 47.05,0.20 47.12,0.31 47.14,0.44 47.17,0.57 47.15,0.70 47.14,0.83 47.08,0.95 47.02,1.07 46.93,1.16 46.84,1.25 46.72,1.31 46.60,1.37 46.60,1.37 46.60,1.37 40.81,3.23 35.02,5.09 29.23,6.95 23.44,8.81 17.65,10.68 11.86,12.54 6.08,14.42 0.29,16.29 0.18,16.31 0.06,16.34 -0.05,16.33 -0.17,16.32 -0.28,16.29 -0.39,16.25 -0.50,16.19 -0.60,16.13 -0.68,16.05 -0.77,15.97 -0.83,15.87 -0.89,15.76 -0.93,15.65 -0.96,15.54 -0.97,15.42 -0.98,15.30 -0.96,15.18 -0.94,15.07 -0.89,14.96 -0.84,14.85 -0.77,14.76 -0.69,14.66 -0.60,14.59 -0.51,14.52 -0.40,14.47 Z" fill="none" stroke-width="8" stroke-dasharray="none" stroke-dashoffset="none" stroke-linecap="round" stroke-linejoin="round" pointer-events="stroke" />
      <path d="M -0.29,14.42 Q -0.29,14.42 5.50,12.60 11.31,10.79 17.11,8.97 22.91,7.15 28.71,5.32 34.51,3.49 40.31,1.66 46.11,-0.16 46.24,-0.18 46.37,-0.20 46.50,-0.17 46.63,-0.15 46.75,-0.09 46.86,-0.02 46.95,0.06 47.04,0.16 47.09,0.28 47.14,0.40 47.15,0.53 47.17,0.66 47.14,0.79 47.11,0.91 47.04,1.02 46.97,1.14 46.87,1.22 46.76,1.30 46.64,1.35 46.52,1.39 46.39,1.40 46.26,1.40 46.13,1.37 46.01,1.33 45.90,1.25 45.79,1.18 45.72,1.07 45.64,0.97 45.60,0.84 45.56,0.72 45.56,0.59 45.56,0.46 45.61,0.33 45.65,0.21 45.73,0.11 45.81,0.00 45.92,-0.06 46.03,-0.13 46.16,-0.16 46.29,-0.19 46.42,-0.19 46.55,-0.18 46.67,-0.13 46.79,-0.07 46.89,0.00 46.98,0.09 47.05,0.20 47.12,0.31 47.14,0.44 47.17,0.57 47.15,0.70 47.14,0.83 47.08,0.95 47.02,1.07 46.93,1.16 46.84,1.25 46.72,1.31 46.60,1.37 46.60,1.37 46.60,1.37 40.81,3.23 35.02,5.09 29.23,6.95 23.44,8.81 17.65,10.68 11.86,12.54 6.08,14.42 0.29,16.29 0.18,16.31 0.06,16.34 -0.05,16.33 -0.17,16.32 -0.28,16.29 -0.39,16.25 -0.50,16.19 -0.60,16.13 -0.68,16.05 -0.77,15.97 -0.83,15.87 -0.89,15.76 -0.93,15.65 -0.96,15.54 -0.97,15.42 -0.98,15.30 -0.96,15.18 -0.94,15.07 -0.89,14.96 -0.84,14.85 -0.77,14.76 -0.69,14.66 -0.60,14.59 -0.51,14.52 -0.40,14.47 Z" fill="#4263eb" stroke="#4263eb" stroke-width="2.11" stroke-dasharray="none" stroke-dashoffset="none" stroke-linecap="round" stroke-linejoin="round" pointer-events="stroke" />
      <path d="M 32.64,-3.421692175393014 L 48.27,0 37.49,11.824995851120622" fill="none" stroke="#4263eb" stroke-width="4.23" stroke-dashoffset="none" stroke-dasharray="none" stroke-linecap="round" stroke-linejoin="round" pointer-events="stroke" />
    </g>
  </g>
  <g id="030cbd4f-71d7-4909-214e-d9a568fc1328_svg" class="tl-centered-g" transform="translate(316.98, 111.99) rotate(0, 24.30, 5.06)">
    <g pointer-events="none" opacity="1">
      <path d="M 0.20,-0.97 Q 0.20,-0.97 6.02,0.26 11.85,1.51 17.68,2.75 23.50,3.99 29.33,5.22 35.16,6.45 40.99,7.68 46.82,8.91 46.94,8.95 47.07,9.00 47.17,9.09 47.27,9.17 47.34,9.29 47.41,9.40 47.44,9.53 47.47,9.66 47.46,9.80 47.45,9.93 47.39,10.05 47.34,10.17 47.25,10.27 47.16,10.37 47.04,10.43 46.92,10.50 46.79,10.52 46.66,10.54 46.52,10.52 46.39,10.50 46.27,10.44 46.15,10.38 46.06,10.29 45.97,10.19 45.91,10.07 45.85,9.95 45.84,9.81 45.82,9.68 45.85,9.55 45.87,9.42 45.94,9.30 46.01,9.19 46.11,9.10 46.21,9.01 46.34,8.96 46.46,8.91 46.59,8.90 46.73,8.89 46.86,8.93 46.99,8.96 47.10,9.04 47.21,9.11 47.29,9.22 47.37,9.32 47.42,9.45 47.46,9.57 47.46,9.71 47.47,9.84 47.42,9.97 47.38,10.10 47.30,10.20 47.22,10.31 47.11,10.39 47.00,10.46 46.87,10.50 46.75,10.54 46.61,10.53 46.48,10.53 46.48,10.53 46.48,10.53 40.64,9.32 34.81,8.12 28.97,6.92 23.14,5.73 17.30,4.53 11.47,3.34 5.63,2.16 -0.20,0.97 -0.31,0.93 -0.43,0.89 -0.53,0.83 -0.63,0.77 -0.71,0.68 -0.80,0.59 -0.85,0.49 -0.91,0.38 -0.95,0.27 -0.98,0.15 -0.98,0.03 -0.99,-0.08 -0.96,-0.20 -0.94,-0.31 -0.89,-0.42 -0.84,-0.53 -0.76,-0.62 -0.68,-0.72 -0.59,-0.79 -0.49,-0.86 -0.38,-0.91 -0.27,-0.95 -0.15,-0.97 -0.03,-0.99 0.08,-0.98 Z" fill="none" stroke-width="8" stroke-dasharray="none" stroke-dashoffset="none" stroke-linecap="round" stroke-linejoin="round" pointer-events="stroke" />
      <path d="M 0.20,-0.97 Q 0.20,-0.97 6.02,0.26 11.85,1.51 17.68,2.75 23.50,3.99 29.33,5.22 35.16,6.45 40.99,7.68 46.82,8.91 46.94,8.95 47.07,9.00 47.17,9.09 47.27,9.17 47.34,9.29 47.41,9.40 47.44,9.53 47.47,9.66 47.46,9.80 47.45,9.93 47.39,10.05 47.34,10.17 47.25,10.27 47.16,10.37 47.04,10.43 46.92,10.50 46.79,10.52 46.66,10.54 46.52,10.52 46.39,10.50 46.27,10.44 46.15,10.38 46.06,10.29 45.97,10.19 45.91,10.07 45.85,9.95 45.84,9.81 45.82,9.68 45.85,9.55 45.87,9.42 45.94,9.30 46.01,9.19 46.11,9.10 46.21,9.01 46.34,8.96 46.46,8.91 46.59,8.90 46.73,8.89 46.86,8.93 46.99,8.96 47.10,9.04 47.21,9.11 47.29,9.22 47.37,9.32 47.42,9.45 47.46,9.57 47.46,9.71 47.47,9.84 47.42,9.97 47.38,10.10 47.30,10.20 47.22,10.31 47.11,10.39 47.00,10.46 46.87,10.50 46.75,10.54 46.61,10.53 46.48,10.53 46.48,10.53 46.48,10.53 40.64,9.32 34.81,8.12 28.97,6.92 23.14,5.73 17.30,4.53 11.47,3.34 5.63,2.16 -0.20,0.97 -0.31,0.93 -0.43,0.89 -0.53,0.83 -0.63,0.77 -0.71,0.68 -0.80,0.59 -0.85,0.49 -0.91,0.38 -0.95,0.27 -0.98,0.15 -0.98,0.03 -0.99,-0.08 -0.96,-0.20 -0.94,-0.31 -0.89,-0.42 -0.84,-0.53 -0.76,-0.62 -0.68,-0.72 -0.59,-0.79 -0.49,-0.86 -0.38,-0.91 -0.27,-0.95 -0.15,-0.97 -0.03,-0.99 0.08,-0.98 Z" fill="#4263eb" stroke="#4263eb" stroke-width="2.11" stroke-dasharray="none" stroke-dashoffset="none" stroke-linecap="round" stroke-linejoin="round" pointer-events="stroke" />
      <path d="M 36.67,-0.5286026189201412 L 48.61,10.13 33.41,15.134896417454268" fill="none" stroke="#4263eb" stroke-width="4.23" stroke-dashoffset="none" stroke-dasharray="none" stroke-linecap="round" stroke-linejoin="round" pointer-events="stroke" />
    </g>
  </g>
  <g id="4fa0384d-e5e6-4e4a-027b-329806a24f04_svg" class="tl-centered-g" transform="translate(314.32, 223.25) rotate(0, 25.86, 4.44)">
    <g pointer-events="none" opacity="1">
      <path d="M 0.14,-0.84 Q 0.14,-0.84 6.35,0.26 12.56,1.37 18.78,2.47 24.99,3.58 31.21,4.67 37.42,5.76 43.64,6.85 49.85,7.94 49.95,7.97 50.05,8.01 50.13,8.07 50.21,8.13 50.27,8.22 50.32,8.30 50.35,8.40 50.38,8.50 50.37,8.60 50.36,8.71 50.32,8.80 50.29,8.90 50.22,8.98 50.15,9.05 50.06,9.11 49.97,9.16 49.87,9.18 49.77,9.20 49.67,9.19 49.57,9.18 49.48,9.13 49.38,9.09 49.31,9.02 49.24,8.95 49.19,8.85 49.14,8.76 49.12,8.66 49.11,8.56 49.13,8.46 49.14,8.36 49.19,8.27 49.24,8.18 49.32,8.11 49.39,8.04 49.49,7.99 49.58,7.95 49.68,7.94 49.78,7.93 49.88,7.95 49.98,7.98 50.07,8.03 50.16,8.08 50.23,8.16 50.29,8.24 50.33,8.34 50.37,8.43 50.37,8.54 50.37,8.64 50.35,8.74 50.32,8.84 50.26,8.92 50.20,9.01 50.12,9.07 50.04,9.13 49.94,9.16 49.84,9.19 49.74,9.19 49.64,9.19 49.64,9.19 49.64,9.19 43.41,8.14 37.19,7.08 30.97,6.03 24.75,4.98 18.52,3.94 12.30,2.90 6.07,1.87 -0.14,0.84 -0.24,0.81 -0.34,0.78 -0.43,0.73 -0.52,0.68 -0.59,0.60 -0.67,0.53 -0.72,0.44 -0.77,0.36 -0.81,0.26 -0.84,0.16 -0.85,0.06 -0.85,-0.04 -0.84,-0.14 -0.82,-0.24 -0.78,-0.34 -0.73,-0.43 -0.67,-0.51 -0.61,-0.60 -0.53,-0.66 -0.45,-0.73 -0.35,-0.77 -0.26,-0.81 -0.16,-0.83 -0.06,-0.85 0.04,-0.85 Z" fill="none" stroke-width="8" stroke-dasharray="none" stroke-dashoffset="none" stroke-linecap="round" stroke-linejoin="round" pointer-events="stroke" />
      <path d="M 0.14,-0.84 Q 0.14,-0.84 6.35,0.26 12.56,1.37 18.78,2.47 24.99,3.58 31.21,4.67 37.42,5.76 43.64,6.85 49.85,7.94 49.95,7.97 50.05,8.01 50.13,8.07 50.21,8.13 50.27,8.22 50.32,8.30 50.35,8.40 50.38,8.50 50.37,8.60 50.36,8.71 50.32,8.80 50.29,8.90 50.22,8.98 50.15,9.05 50.06,9.11 49.97,9.16 49.87,9.18 49.77,9.20 49.67,9.19 49.57,9.18 49.48,9.13 49.38,9.09 49.31,9.02 49.24,8.95 49.19,8.85 49.14,8.76 49.12,8.66 49.11,8.56 49.13,8.46 49.14,8.36 49.19,8.27 49.24,8.18 49.32,8.11 49.39,8.04 49.49,7.99 49.58,7.95 49.68,7.94 49.78,7.93 49.88,7.95 49.98,7.98 50.07,8.03 50.16,8.08 50.23,8.16 50.29,8.24 50.33,8.34 50.37,8.43 50.37,8.54 50.37,8.64 50.35,8.74 50.32,8.84 50.26,8.92 50.20,9.01 50.12,9.07 50.04,9.13 49.94,9.16 49.84,9.19 49.74,9.19 49.64,9.19 49.64,9.19 49.64,9.19 43.41,8.14 37.19,7.08 30.97,6.03 24.75,4.98 18.52,3.94 12.30,2.90 6.07,1.87 -0.14,0.84 -0.24,0.81 -0.34,0.78 -0.43,0.73 -0.52,0.68 -0.59,0.60 -0.67,0.53 -0.72,0.44 -0.77,0.36 -0.81,0.26 -0.84,0.16 -0.85,0.06 -0.85,-0.04 -0.84,-0.14 -0.82,-0.24 -0.78,-0.34 -0.73,-0.43 -0.67,-0.51 -0.61,-0.60 -0.53,-0.66 -0.45,-0.73 -0.35,-0.77 -0.26,-0.81 -0.16,-0.83 -0.06,-0.85 0.04,-0.85 Z" fill="#4263eb" stroke="#4263eb" stroke-width="2.11" stroke-dasharray="none" stroke-dashoffset="none" stroke-linecap="round" stroke-linejoin="round" pointer-events="stroke" />
      <path d="M 39.42,-1.3263082525536412 L 51.72,8.91 36.70,14.441423096271807" fill="none" stroke="#4263eb" stroke-width="4.23" stroke-dashoffset="none" stroke-dasharray="none" stroke-linecap="round" stroke-linejoin="round" pointer-events="stroke" />
    </g>
  </g>
<!-- svg-source:tldraw -->
<!-- payload-type:application/vnd.tldraw+json --><!-- payload-version:2 --><!-- payload-start -->

{
  "document": {
    "id": "doc",
    "name": "New Document",
    "version": 14,
    "pages": {
      "page": {
        "id": "page",
        "name": "Page 1",
        "childIndex": 1,
        "shapes": {
          "f3b255a5-3d4f-45e8-0a90-af7a422c4ddc": {
            "id": "f3b255a5-3d4f-45e8-0a90-af7a422c4ddc",
            "type": "rectangle",
            "name": "Rectangle",
            "parentId": "page",
            "childIndex": 6,
            "point": [
              12.07,
              278.08
            ],
            "size": [
              473.09,
              3.24
            ],
            "rotation": 0,
            "style": {
              "color": "blue",
              "size": "small",
              "isFilled": false,
              "dash": "dashed",
              "scale": 1
            }
          },
          "1bce866f-4156-4c37-238f-8995a146c0b4": {
            "id": "1bce866f-4156-4c37-238f-8995a146c0b4",
            "type": "rectangle",
            "name": "Rectangle",
            "parentId": "page",
            "childIndex": 7,
            "point": [
              486.47,
              281.94
            ],
            "size": [
              4.04,
              278.44
            ],
            "rotation": 0,
            "style": {
              "color": "blue",
              "size": "small",
              "isFilled": false,
              "dash": "dashed",
              "scale": 1
            }
          },
          "4a7ea5f9-ad33-4bba-24bd-500ae3ea802f": {
            "id": "4a7ea5f9-ad33-4bba-24bd-500ae3ea802f",
            "type": "rectangle",
            "name": "Rectangle",
            "parentId": "page",
            "childIndex": 8,
            "point": [
              5.69,
              278.4
            ],
            "size": [
              4.52,
              280.18
            ],
            "rotation": 0,
            "style": {
              "color": "blue",
              "size": "small",
              "isFilled": false,
              "dash": "dashed",
              "scale": 1
            }
          },
          "8b4b594b-882b-4ff7-0a35-52133af8c22a": {
            "id": "8b4b594b-882b-4ff7-0a35-52133af8c22a",
            "type": "rectangle",
            "name": "Rectangle",
            "parentId": "page",
            "childIndex": 9,
            "point": [
              14.98,
              555.12
            ],
            "size": [
              467.81,
              4.26
            ],
            "rotation": 0,
            "style": {
              "color": "blue",
              "size": "small",
              "isFilled": false,
              "dash": "dashed",
              "scale": 1
            }
          },
          "d152e8fc-472c-4c2e-1cc4-a616ca1973d3": {
            "id": "d152e8fc-472c-4c2e-1cc4-a616ca1973d3",
            "type": "arrow",
            "name": "Arrow",
            "parentId": "page",
            "childIndex": 10,
            "point": [
              205.92331591145816,
              557.1543172494362,
              0.5
            ],
            "rotation": 0,
            "bend": 0,
            "handles": {
              "start": {
                "id": "start",
                "index": 0,
                "point": [
                  0,
                  0
                ],
                "canBind": true
              },
              "end": {
                "id": "end",
                "index": 1,
                "point": [
                  1,
                  1
                ],
                "canBind": true
              },
              "bend": {
                "id": "bend",
                "index": 2,
                "point": [
                  0.5,
                  0.5
                ]
              }
            },
            "decorations": {
              "end": "arrow"
            },
            "style": {
              "color": "blue",
              "size": "small",
              "isFilled": false,
              "dash": "dashed",
              "scale": 1
            }
          },
          "f0164826-7d27-40cb-34d8-8d3d35d207f5": {
            "id": "f0164826-7d27-40cb-34d8-8d3d35d207f5",
            "type": "rectangle",
            "name": "Rectangle",
            "parentId": "page",
            "childIndex": 11,
            "point": [
              40.55,
              396.98
            ],
            "size": [
              92.12,
              38.7
            ],
            "rotation": 0,
            "style": {
              "color": "red",
              "size": "small",
              "isFilled": true,
              "dash": "draw",
              "scale": 1
            }
          },
          "c41b8ea3-15aa-4c5a-3056-4a1d57d73ec4": {
            "id": "c41b8ea3-15aa-4c5a-3056-4a1d57d73ec4",
            "type": "rectangle",
            "name": "Rectangle",
            "parentId": "page",
            "childIndex": 12,
            "point": [
              370.94,
              305.45
            ],
            "size": [
              92.12,
              38.7
            ],
            "rotation": 0,
            "style": {
              "color": "violet",
              "size": "small",
              "isFilled": true,
              "dash": "draw",
              "scale": 1
            }
          },
          "e4510de7-b515-4be4-18c2-d6f8b8ca31b6": {
            "id": "e4510de7-b515-4be4-18c2-d6f8b8ca31b6",
            "type": "rectangle",
            "name": "Rectangle",
            "parentId": "page",
            "childIndex": 13,
            "point": [
              371.28,
              377.78
            ],
            "size": [
              92.12,
              38.7
            ],
            "rotation": 0,
            "style": {
              "color": "violet",
              "size": "small",
              "isFilled": true,
              "dash": "draw",
              "scale": 1
            }
          },
          "3ad4390e-3d64-4808-3b38-aaee3d677506": {
            "id": "3ad4390e-3d64-4808-3b38-aaee3d677506",
            "type": "rectangle",
            "name": "Rectangle",
            "parentId": "page",
            "childIndex": 14,
            "point": [
              198.55,
              341.7
            ],
            "size": [
              92.12,
              38.7
            ],
            "rotation": 0,
            "style": {
              "color": "orange",
              "size": "small",
              "isFilled": true,
              "dash": "draw",
              "scale": 1
            }
          },
          "05adb501-57d5-43cb-077b-9c1c7f3909cd": {
            "id": "05adb501-57d5-43cb-077b-9c1c7f3909cd",
            "type": "rectangle",
            "name": "Rectangle",
            "parentId": "page",
            "childIndex": 15,
            "point": [
              199.07,
              456.03
            ],
            "size": [
              88.94,
              37.83
            ],
            "rotation": 0,
            "style": {
              "color": "cyan",
              "size": "small",
              "isFilled": true,
              "dash": "draw",
              "scale": 1
            }
          },
          "368afe15-71a4-41c6-029d-49da1fe09d3f": {
            "id": "368afe15-71a4-41c6-029d-49da1fe09d3f",
            "type": "rectangle",
            "name": "Rectangle",
            "parentId": "page",
            "childIndex": 16,
            "point": [
              371.73,
              483.9
            ],
            "size": [
              93.09,
              42
            ],
            "rotation": 0,
            "style": {
              "color": "gray",
              "size": "small",
              "isFilled": true,
              "dash": "draw",
              "scale": 1
            }
          },
          "0b699880-3f36-498e-379c-779f514d27d0": {
            "id": "0b699880-3f36-498e-379c-779f514d27d0",
            "type": "arrow",
            "name": "Arrow",
            "parentId": "page",
            "childIndex": 17,
            "point": [
              148.67,
              382.88
            ],
            "rotation": 0,
            "bend": 0,
            "handles": {
              "start": {
                "id": "start",
                "index": 0,
                "point": [
                  0,
                  11.81
                ],
                "canBind": true,
                "bindingId": "4906ef3c-fbc0-43a3-274c-f29e620bb9ce"
              },
              "end": {
                "id": "end",
                "index": 1,
                "point": [
                  33.88,
                  0
                ],
                "canBind": true,
                "bindingId": "c8621061-ad64-415f-1322-89097ad7332a"
              },
              "bend": {
                "id": "bend",
                "index": 2,
                "point": [
                  16.94,
                  5.91
                ]
              }
            },
            "decorations": {
              "end": "arrow"
            },
            "style": {
              "color": "indigo",
              "size": "small",
              "isFilled": true,
              "dash": "draw",
              "scale": 1
            }
          },
          "96d67d19-a700-4d9d-1913-f7c91ed21030": {
            "id": "96d67d19-a700-4d9d-1913-f7c91ed21030",
            "type": "arrow",
            "name": "Arrow",
            "parentId": "page",
            "childIndex": 18,
            "point": [
              148.67,
              439.44
            ],
            "rotation": 0,
            "bend": 0,
            "handles": {
              "start": {
                "id": "start",
                "index": 0,
                "point": [
                  0,
                  0
                ],
                "canBind": true,
                "bindingId": "086be62b-4c2d-4408-272f-a4111224f6c3"
              },
              "end": {
                "id": "end",
                "index": 1,
                "point": [
                  34.4,
                  12.87
                ],
                "canBind": true,
                "bindingId": "3211878d-2abd-4715-2904-808d1bc3a1de"
              },
              "bend": {
                "id": "bend",
                "index": 2,
                "point": [
                  17.2,
                  6.43
                ]
              }
            },
            "decorations": {
              "end": "arrow"
            },
            "style": {
              "color": "indigo",
              "size": "small",
              "isFilled": true,
              "dash": "draw",
              "scale": 1
            }
          },
          "987a2a02-d407-4935-3aa1-fb2d620d0d02": {
            "id": "987a2a02-d407-4935-3aa1-fb2d620d0d02",
            "type": "arrow",
            "name": "Arrow",
            "parentId": "page",
            "childIndex": 19,
            "point": [
              306.67,
              326.05
            ],
            "rotation": 0,
            "bend": 0,
            "handles": {
              "start": {
                "id": "start",
                "index": 0,
                "point": [
                  0,
                  15.36
                ],
                "canBind": true,
                "bindingId": "204edaa3-d3d3-4901-3a63-44a98c6f91d6"
              },
              "end": {
                "id": "end",
                "index": 1,
                "point": [
                  48.27,
                  0
                ],
                "canBind": true,
                "bindingId": "ca80dc8c-28fc-4851-0e85-9f26c0c3d365"
              },
              "bend": {
                "id": "bend",
                "index": 2,
                "point": [
                  24.14,
                  7.68
                ]
              }
            },
            "decorations": {
              "end": "arrow"
            },
            "style": {
              "color": "indigo",
              "size": "small",
              "isFilled": true,
              "dash": "draw",
              "scale": 1
            }
          },
          "030cbd4f-71d7-4909-214e-d9a568fc1328": {
            "id": "030cbd4f-71d7-4909-214e-d9a568fc1328",
            "type": "arrow",
            "name": "Arrow",
            "parentId": "page",
            "childIndex": 20,
            "point": [
              306.67,
              374.07
            ],
            "rotation": 0,
            "bend": 0,
            "handles": {
              "start": {
                "id": "start",
                "index": 0,
                "point": [
                  0,
                  0
                ],
                "canBind": true,
                "bindingId": "6e06c8ae-224b-49b1-2722-1630abe0c9a1"
              },
              "end": {
                "id": "end",
                "index": 1,
                "point": [
                  48.61,
                  10.13
                ],
                "canBind": true,
                "bindingId": "e61b1fbf-53c1-458b-0940-6718c5eb26f3"
              },
              "bend": {
                "id": "bend",
                "index": 2,
                "point": [
                  24.3,
                  5.07
                ]
              }
            },
            "decorations": {
              "end": "arrow"
            },
            "style": {
              "color": "indigo",
              "size": "small",
              "isFilled": true,
              "dash": "draw",
              "scale": 1
            }
          },
          "4fa0384d-e5e6-4e4a-027b-329806a24f04": {
            "id": "4fa0384d-e5e6-4e4a-027b-329806a24f04",
            "type": "arrow",
            "name": "Arrow",
            "parentId": "page",
            "childIndex": 21,
            "point": [
              304.01,
              485.33
            ],
            "rotation": 0,
            "bend": 0,
            "handles": {
              "start": {
                "id": "start",
                "index": 0,
                "point": [
                  0,
                  0
                ],
                "canBind": true,
                "bindingId": "e28f6354-a250-4a06-1be4-3ea3ca127556"
              },
              "end": {
                "id": "end",
                "index": 1,
                "point": [
                  51.72,
                  8.88
                ],
                "canBind": true,
                "bindingId": "617f17e9-f90e-420b-2d65-707667fcc48d"
              },
              "bend": {
                "id": "bend",
                "index": 2,
                "point": [
                  25.86,
                  4.44
                ]
              }
            },
            "decorations": {
              "end": "arrow"
            },
            "style": {
              "color": "indigo",
              "size": "small",
              "isFilled": true,
              "dash": "draw",
              "scale": 1
            }
          }
        },
        "bindings": {
          "4906ef3c-fbc0-43a3-274c-f29e620bb9ce": {
            "id": "4906ef3c-fbc0-43a3-274c-f29e620bb9ce",
            "type": "arrow",
            "fromId": "0b699880-3f36-498e-379c-779f514d27d0",
            "toId": "f0164826-7d27-40cb-34d8-8d3d35d207f5",
            "handleId": "start",
            "point": [
              0.5,
              0.5
            ],
            "distance": 16
          },
          "c8621061-ad64-415f-1322-89097ad7332a": {
            "id": "c8621061-ad64-415f-1322-89097ad7332a",
            "type": "arrow",
            "fromId": "0b699880-3f36-498e-379c-779f514d27d0",
            "toId": "3ad4390e-3d64-4808-3b38-aaee3d677506",
            "handleId": "end",
            "point": [
              0.5,
              0.5
            ],
            "distance": 16
          },
          "086be62b-4c2d-4408-272f-a4111224f6c3": {
            "id": "086be62b-4c2d-4408-272f-a4111224f6c3",
            "type": "arrow",
            "fromId": "96d67d19-a700-4d9d-1913-f7c91ed21030",
            "toId": "f0164826-7d27-40cb-34d8-8d3d35d207f5",
            "handleId": "start",
            "point": [
              0.5,
              0.5
            ],
            "distance": 16
          },
          "3211878d-2abd-4715-2904-808d1bc3a1de": {
            "id": "3211878d-2abd-4715-2904-808d1bc3a1de",
            "type": "arrow",
            "fromId": "96d67d19-a700-4d9d-1913-f7c91ed21030",
            "toId": "05adb501-57d5-43cb-077b-9c1c7f3909cd",
            "handleId": "end",
            "point": [
              0.5,
              0.5
            ],
            "distance": 16
          },
          "204edaa3-d3d3-4901-3a63-44a98c6f91d6": {
            "id": "204edaa3-d3d3-4901-3a63-44a98c6f91d6",
            "type": "arrow",
            "fromId": "987a2a02-d407-4935-3aa1-fb2d620d0d02",
            "toId": "3ad4390e-3d64-4808-3b38-aaee3d677506",
            "handleId": "start",
            "point": [
              0.5,
              0.5
            ],
            "distance": 16
          },
          "ca80dc8c-28fc-4851-0e85-9f26c0c3d365": {
            "id": "ca80dc8c-28fc-4851-0e85-9f26c0c3d365",
            "type": "arrow",
            "fromId": "987a2a02-d407-4935-3aa1-fb2d620d0d02",
            "toId": "c41b8ea3-15aa-4c5a-3056-4a1d57d73ec4",
            "handleId": "end",
            "point": [
              0.61,
              0.23
            ],
            "distance": 16
          },
          "6e06c8ae-224b-49b1-2722-1630abe0c9a1": {
            "id": "6e06c8ae-224b-49b1-2722-1630abe0c9a1",
            "type": "arrow",
            "fromId": "030cbd4f-71d7-4909-214e-d9a568fc1328",
            "toId": "3ad4390e-3d64-4808-3b38-aaee3d677506",
            "handleId": "start",
            "point": [
              0.5,
              0.5
            ],
            "distance": 16
          },
          "e61b1fbf-53c1-458b-0940-6718c5eb26f3": {
            "id": "e61b1fbf-53c1-458b-0940-6718c5eb26f3",
            "type": "arrow",
            "fromId": "030cbd4f-71d7-4909-214e-d9a568fc1328",
            "toId": "e4510de7-b515-4be4-18c2-d6f8b8ca31b6",
            "handleId": "end",
            "point": [
              0.5,
              0.5
            ],
            "distance": 16
          },
          "e28f6354-a250-4a06-1be4-3ea3ca127556": {
            "id": "e28f6354-a250-4a06-1be4-3ea3ca127556",
            "type": "arrow",
            "fromId": "4fa0384d-e5e6-4e4a-027b-329806a24f04",
            "toId": "05adb501-57d5-43cb-077b-9c1c7f3909cd",
            "handleId": "start",
            "point": [
              0.5,
              0.5
            ],
            "distance": 16
          },
          "617f17e9-f90e-420b-2d65-707667fcc48d": {
            "id": "617f17e9-f90e-420b-2d65-707667fcc48d",
            "type": "arrow",
            "fromId": "4fa0384d-e5e6-4e4a-027b-329806a24f04",
            "toId": "368afe15-71a4-41c6-029d-49da1fe09d3f",
            "handleId": "end",
            "point": [
              0.5,
              0.5
            ],
            "distance": 16
          }
        }
      }
    },
    "pageStates": {
      "page": {
        "id": "page",
        "selectedIds": [
          "368afe15-71a4-41c6-029d-49da1fe09d3f"
        ],
        "camera": {
          "point": [
            299.08,
            90.69
          ],
          "zoom": 0.40681381921141474
        },
        "editingId": null,
        "hoveredId": "368afe15-71a4-41c6-029d-49da1fe09d3f"
      }
    }
  },
  "assets": {}
}
<!-- payload-end -->
</svg>