<svg xmlns="http://www.w3.org/2000/svg" viewBox="0 0 516.82 314.3" width="484.82" height="282.3">
  <defs>
    <style>
      @import url('https://fonts.googleapis.com/css2?family=Caveat+Brush&amp;family=Source+Code+Pro&amp;family=Source+Sans+Pro&amp;family=Source+Serif+Pro&amp;display=swap');
    </style>
  </defs>
  <g id="f3b255a5-3d4f-45e8-0a90-af7a422c4ddc_svg" class="tl-centered-g" transform="translate(22.38, 16) rotate(0, 236.54, 1.62)">
    <rect x="2.11" y="2.11" width="470.97" height="1.12" fill="none" stroke-width="4.23" stroke="none" pointer-events="all" />
    <g pointer-events="stroke">
      <line x1="2.11" y1="2.11" x2="470.97" y2="2.11" stroke="#1c7ed6" stroke-width="4.23" stroke-linecap="round" stroke-dasharray="6.47 6.55" stroke-dashoffset="3.23" />
      <line x1="470.97" y1="2.11" x2="470.97" y2="1.12" stroke="#1c7ed6" stroke-width="4.23" stroke-linecap="round" stroke-dasharray="6.47 6.47" stroke-dashoffset="3.23" />
      <line x1="470.97" y1="1.12" x2="2.11" y2="1.12" stroke="#1c7ed6" stroke-width="4.23" stroke-linecap="round" stroke-dasharray="6.47 6.55" stroke-dashoffset="3.23" />
      <line x1="2.11" y1="1.12" x2="2.11" y2="2.11" stroke="#1c7ed6" stroke-width="4.23" stroke-linecap="round" stroke-dasharray="6.47 6.47" stroke-dashoffset="3.23" />
    </g>
  </g>
  <g id="1bce866f-4156-4c37-238f-8995a146c0b4_svg" class="tl-centered-g" transform="translate(496.78000000000003, 19.86) rotate(0, 2.02, 139.22)">
    <rect x="2.11" y="2.11" width="1.92" height="276.32" fill="none" stroke-width="4.23" stroke="none" pointer-events="all" />
    <g pointer-events="stroke">
      <line x1="2.11" y1="2.11" x2="1.92" y2="2.11" stroke="#1c7ed6" stroke-width="4.23" stroke-linecap="round" stroke-dasharray="6.47 6.47" stroke-dashoffset="3.23" />
      <line x1="1.92" y1="2.11" x2="1.92" y2="276.32" stroke="#1c7ed6" stroke-width="4.23" stroke-linecap="round" stroke-dasharray="6.47 6.58" stroke-dashoffset="3.23" />
      <line x1="1.92" y1="276.32" x2="2.11" y2="276.32" stroke="#1c7ed6" stroke-width="4.23" stroke-linecap="round" stroke-dasharray="6.47 6.47" stroke-dashoffset="3.23" />
      <line x1="2.11" y1="276.32" x2="2.11" y2="2.11" stroke="#1c7ed6" stroke-width="4.23" stroke-linecap="round" stroke-dasharray="6.47 6.58" stroke-dashoffset="3.23" />
    </g>
  </g>
  <g id="8b4b594b-882b-4ff7-0a35-52133af8c22a_svg" class="tl-centered-g" transform="translate(25.29, 293.04) rotate(0, 233.90, 2.13)">
    <rect x="2.11" y="2.11" width="465.69" height="2.14" fill="none" stroke-width="4.23" stroke="none" pointer-events="all" />
    <g pointer-events="stroke">
      <line x1="2.11" y1="2.11" x2="465.69" y2="2.11" stroke="#1c7ed6" stroke-width="4.23" stroke-linecap="round" stroke-dasharray="6.47 6.77" stroke-dashoffset="3.23" />
      <line x1="465.69" y1="2.11" x2="465.69" y2="2.14" stroke="#1c7ed6" stroke-width="4.23" stroke-linecap="round" stroke-dasharray="6.47 6.47" stroke-dashoffset="3.23" />
      <line x1="465.69" y1="2.14" x2="2.11" y2="2.14" stroke="#1c7ed6" stroke-width="4.23" stroke-linecap="round" stroke-dasharray="6.47 6.77" stroke-dashoffset="3.23" />
      <line x1="2.11" y1="2.14" x2="2.11" y2="2.11" stroke="#1c7ed6" stroke-width="4.23" stroke-linecap="round" stroke-dasharray="6.47 6.47" stroke-dashoffset="3.23" />
    </g>
  </g>
  <g id="d152e8fc-472c-4c2e-1cc4-a616ca1973d3_svg" class="tl-centered-g" transform="translate(216.23331591145816, 295.07) rotate(0, 0.5, 0.5)">
    <g pointer-events="none" opacity="1">
      <path d="M 0.87,0.5446581987385204 L 1,1 0.54,0.8779915320718538" fill="none" stroke="#1c7ed6" stroke-width="4.23" stroke-dashoffset="none" stroke-dasharray="none" stroke-linecap="round" stroke-linejoin="round" pointer-events="stroke" />
    </g>
  </g>
  <g id="b5d2d0a1-3986-4a14-3092-d47a4be36565_svg" class="tl-centered-g" transform="translate(216.61, 70.79) rotate(0, 87.75, 87.75)">
    <path d="M 4.25,57.25 Q 4.25,57.25 5.11,55.17 5.96,53.09 6.70,51.51 7.43,49.93 8.46,47.96 9.50,45.98 10.89,43.65 12.29,41.32 14.11,38.69 15.93,36.07 18.25,33.23 20.56,30.39 23.45,27.44 26.33,24.49 29.83,21.55 33.34,18.61 37.50,15.82 41.66,13.02 46.50,10.54 51.34,8.06 56.84,6.06 62.33,4.07 68.43,2.74 74.52,1.41 81.10,0.92 87.69,0.44 94.61,0.96 101.54,1.49 108.60,3.16 115.66,4.83 122.61,7.74 129.56,10.64 136.13,14.83 142.70,19.01 148.58,24.44 154.47,29.86 159.37,36.43 164.28,43.00 167.92,50.53 171.56,58.06 173.70,66.30 175.85,74.54 176.31,83.17 176.78,91.80 175.47,100.46 174.16,109.13 171.08,117.44 167.99,125.76 163.22,133.34 158.45,140.92 152.18,147.42 145.91,153.92 138.42,159.03 130.92,164.14 122.54,167.65 114.16,171.15 105.28,172.90 96.40,174.66 87.42,174.62 78.44,174.59 69.75,172.83 61.06,171.06 53.01,167.70 44.97,164.35 37.87,159.62 30.78,154.89 24.86,149.06 18.94,143.23 14.34,136.60 9.74,129.97 6.54,122.85 3.33,115.73 1.51,108.42 -0.30,101.11 -0.83,93.88 -1.35,86.66 -0.69,79.74 -0.04,72.83 1.60,66.42 3.26,60.01 5.72,54.22 8.19,48.43 11.26,43.35 14.33,38.27 17.81,33.93 21.29,29.59 25.00,25.97 28.70,22.36 32.46,19.44 36.23,16.51 39.90,14.22 43.58,11.92 47.06,10.17 50.53,8.42 53.71,7.13 56.89,5.84 59.71,4.93 62.52,4.01 64.92,3.39 67.32,2.77 69.26,2.36 71.20,1.96 72.66,1.71 74.13,1.47 75.10,1.33" stroke="none" fill="none" pointer-events="all" />
    <path d="M 4.24,57.25 Q 4.24,57.25 4.93,55.10 5.62,52.95 6.26,51.32 6.91,49.69 7.87,47.66 8.83,45.63 10.18,43.25 11.53,40.87 13.33,38.19 15.13,35.51 17.44,32.62 19.75,29.73 22.66,26.74 25.56,23.75 29.11,20.78 32.66,17.81 36.88,14.99 41.10,12.18 45.99,9.67 50.89,7.17 56.44,5.15 62.00,3.14 68.15,1.79 74.31,0.45 80.97,-0.03 87.62,-0.52 94.61,0.00 101.61,0.52 108.75,2.21 115.88,3.89 122.91,6.82 129.94,9.76 136.58,13.98 143.22,18.20 149.17,23.68 155.12,29.16 160.08,35.80 165.05,42.43 168.73,50.04 172.42,57.65 174.60,65.97 176.77,74.30 177.25,83.03 177.73,91.75 176.42,100.51 175.11,109.27 171.99,117.68 168.88,126.09 164.07,133.76 159.25,141.43 152.92,148.01 146.59,154.58 139.02,159.76 131.46,164.93 122.99,168.48 114.53,172.03 105.56,173.81 96.58,175.60 87.51,175.57 78.43,175.55 69.65,173.77 60.86,171.99 52.73,168.61 44.60,165.23 37.42,160.46 30.25,155.69 24.26,149.80 18.27,143.91 13.61,137.21 8.96,130.51 5.71,123.31 2.46,116.12 0.61,108.73 -1.23,101.34 -1.77,94.03 -2.30,86.72 -1.65,79.73 -0.99,72.74 0.67,66.25 2.33,59.77 4.82,53.91 7.31,48.06 10.41,42.92 13.51,37.78 17.03,33.38 20.55,28.99 24.30,25.34 28.04,21.69 31.86,18.74 35.67,15.80 39.41,13.51 43.14,11.21 46.67,9.49 50.20,7.77 53.44,6.52 56.67,5.28 59.52,4.42 62.38,3.57 64.81,3.01 67.23,2.45 69.20,2.10 71.16,1.74 73.61,1.46 76.07,1.18 76.07,1.19 76.07,1.19 76.07,1.20 76.07,1.20 73.66,1.69 71.25,2.17 69.32,2.63 67.40,3.08 65.03,3.77 62.67,4.45 59.89,5.43 57.12,6.40 53.99,7.74 50.86,9.07 47.44,10.85 44.02,12.63 40.40,14.93 36.78,17.23 33.07,20.13 29.36,23.04 25.70,26.61 22.04,30.18 18.59,34.47 15.15,38.77 12.11,43.79 9.06,48.81 6.62,54.53 4.18,60.25 2.54,66.59 0.90,72.92 0.25,79.76 -0.39,86.59 0.10,93.73 0.61,100.88 2.41,108.11 4.21,115.34 7.37,122.38 10.53,129.43 15.07,135.99 19.61,142.55 25.46,148.33 31.31,154.10 38.33,158.79 45.34,163.47 53.30,166.80 61.25,170.13 69.85,171.88 78.45,173.64 87.33,173.68 96.22,173.72 105.01,171.99 113.80,170.27 122.09,166.81 130.39,163.35 137.81,158.30 145.22,153.25 151.43,146.83 157.64,140.41 162.37,132.91 167.10,125.42 170.16,117.20 173.22,108.98 174.52,100.41 175.82,91.85 175.37,83.31 174.92,74.77 172.81,66.62 170.70,58.47 167.10,51.02 163.51,43.57 158.66,37.07 153.82,30.57 148.00,25.19 142.18,19.82 135.69,15.67 129.19,11.53 122.31,8.65 115.43,5.77 108.45,4.11 101.46,2.45 94.61,1.93 87.76,1.41 81.24,1.89 74.73,2.36 68.70,3.68 62.67,5.00 57.23,6.97 51.80,8.95 47.01,11.41 42.23,13.87 38.12,16.64 34.01,19.41 30.55,22.33 27.09,25.24 24.23,28.15 21.37,31.06 19.05,33.84 16.73,36.63 14.88,39.20 13.04,41.77 11.60,44.05 10.17,46.33 9.06,48.25 7.95,50.18 7.13,51.71 6.30,53.23 5.28,55.24 Z" fill="#ff2133" stroke="#ff2133" stroke-width="2" pointer-events="all" stroke-linecap="round" stroke-linejoin="round" opacity="1" />
  </g>
  <g id="61999f3c-0a91-426c-1a0b-62b649a26f88_svg" class="tl-centered-g" transform="translate(111.91, 71.53) rotate(0, 86.88, 86.88)">
    <path d="M 18.62,138.71 Q 18.62,138.71 17.32,136.89 16.02,135.07 15.08,133.61 14.14,132.15 13.02,130.24 11.91,128.32 10.68,125.92 9.46,123.51 8.22,120.60 6.98,117.68 5.83,114.25 4.68,110.81 3.73,106.84 2.79,102.88 2.18,98.41 1.58,93.95 1.46,89.02 1.34,84.09 1.84,78.79 2.34,73.48 3.60,67.91 4.86,62.34 7.00,56.65 9.13,50.96 12.24,45.34 15.34,39.72 19.47,34.38 23.59,29.05 28.73,24.24 33.87,19.43 39.98,15.39 46.08,11.36 53.02,8.34 59.96,5.33 67.55,3.56 75.14,1.78 83.13,1.43 91.12,1.07 99.20,2.26 107.29,3.45 115.15,6.22 123.00,8.99 130.28,13.32 137.55,17.64 143.90,23.38 150.25,29.13 155.37,36.08 160.49,43.04 164.13,50.92 167.77,58.80 169.76,67.27 171.75,75.74 172.00,84.43 172.25,93.11 170.76,101.62 169.28,110.14 166.16,118.11 163.04,126.09 158.47,133.21 153.90,140.33 148.12,146.32 142.34,152.32 135.66,157.00 128.97,161.69 121.69,164.96 114.42,168.23 106.87,170.06 99.32,171.88 91.80,172.32 84.28,172.76 77.05,171.91 69.82,171.07 63.11,169.12 56.39,167.16 50.35,164.28 44.30,161.41 39.03,157.83 33.76,154.25 29.32,150.18 24.88,146.11 21.26,141.75 17.65,137.40 14.82,132.94 12.00,128.48 9.89,124.09 7.78,119.69 6.30,115.49 4.82,111.29 3.86,107.39 2.90,103.48 2.36,99.95 1.82,96.42 1.59,93.31 1.36,90.21 1.33,87.57 1.31,84.93 1.42,82.77 1.52,80.61 1.67,78.94 1.83,77.27 1.98,76.09" stroke="none" fill="none" pointer-events="all" />
    <path d="M 18.61,138.71 Q 18.61,138.71 17.16,137.00 15.72,135.28 14.69,133.87 13.65,132.47 12.45,130.59 11.25,128.70 9.96,126.31 8.67,123.91 7.38,120.99 6.08,118.07 4.88,114.60 3.68,111.14 2.72,107.13 1.75,103.13 1.15,98.61 0.55,94.08 0.44,89.10 0.32,84.12 0.83,78.75 1.34,73.39 2.62,67.75 3.90,62.12 6.06,56.37 8.22,50.61 11.36,44.93 14.49,39.24 18.66,33.85 22.83,28.45 28.02,23.59 33.22,18.72 39.39,14.64 45.55,10.56 52.57,7.50 59.58,4.45 67.25,2.65 74.92,0.85 83.00,0.48 91.08,0.12 99.26,1.31 107.44,2.50 115.38,5.30 123.33,8.09 130.68,12.46 138.04,16.82 144.46,22.62 150.89,28.42 156.07,35.45 161.26,42.47 164.95,50.44 168.64,58.41 170.66,66.97 172.68,75.53 172.94,84.31 173.20,93.09 171.71,101.69 170.22,110.30 167.07,118.37 163.93,126.44 159.31,133.64 154.70,140.84 148.86,146.91 143.03,152.98 136.27,157.73 129.52,162.47 122.16,165.79 114.80,169.10 107.17,170.96 99.54,172.81 91.93,173.26 84.33,173.71 77.02,172.86 69.71,172.02 62.92,170.05 56.12,168.07 50.01,165.17 43.89,162.27 38.56,158.65 33.23,155.04 28.73,150.92 24.23,146.81 20.57,142.41 16.91,138.00 14.05,133.50 11.19,128.99 9.07,124.54 6.95,120.09 5.47,115.84 4.00,111.58 3.08,107.62 2.15,103.66 1.66,100.09 1.17,96.52 1.01,93.38 0.84,90.25 0.89,87.59 0.95,84.93 1.11,82.76 1.27,80.59 1.69,77.76 2.11,74.92 2.12,74.92 2.12,74.92 2.13,74.92 2.13,74.92 1.95,77.77 1.77,80.62 1.72,82.77 1.68,84.92 1.77,87.55 1.87,90.17 2.17,93.24 2.47,96.32 3.06,99.81 3.66,103.30 4.65,107.15 5.63,111.00 7.12,115.15 8.61,119.30 10.70,123.64 12.80,127.98 15.59,132.38 18.38,136.79 21.95,141.09 25.52,145.40 29.91,149.43 34.30,153.46 39.51,157.00 44.71,160.55 50.69,163.39 56.66,166.24 63.30,168.18 69.94,170.12 77.08,170.96 84.22,171.80 91.66,171.38 99.09,170.96 106.56,169.16 114.03,167.36 121.23,164.13 128.43,160.91 135.04,156.28 141.66,151.65 147.38,145.73 153.10,139.81 157.62,132.77 162.15,125.74 165.25,117.85 168.34,109.97 169.82,101.55 171.29,93.13 171.06,84.55 170.82,75.96 168.86,67.58 166.90,59.20 163.31,51.40 159.72,43.60 154.66,36.72 149.60,29.83 143.33,24.14 137.06,18.46 129.87,14.18 122.68,9.89 114.92,7.14 107.15,4.39 99.15,3.21 91.16,2.03 83.25,2.37 75.35,2.71 67.85,4.46 60.34,6.21 53.47,9.19 46.61,12.16 40.57,16.15 34.53,20.13 29.44,24.89 24.35,29.64 20.27,34.91 16.19,40.19 13.12,45.75 10.05,51.30 7.93,56.93 5.82,62.56 4.58,68.07 3.33,73.58 2.84,78.82 2.35,84.07 2.48,88.94 2.61,93.81 3.22,98.22 3.83,102.63 4.75,106.55 5.67,110.47 6.78,113.89 7.88,117.30 9.07,120.21 10.25,123.11 11.41,125.52 12.56,127.94 13.59,129.89 14.62,131.84 15.47,133.35 16.32,134.85 17.47,136.78 Z" fill="#36b24d" stroke="#36b24d" stroke-width="2" pointer-events="all" stroke-linecap="round" stroke-linejoin="round" opacity="1" />
  </g>
  <g fill="#ff2133" transform="translate(176.9, 133.28) rotate(0, 10.5, 23)"><text font-family="&quot;Caveat Brush&quot;" font-size="28px" text-anchor="start" alignment-baseline="central" text-align="left" y="18.2">A</text></g>
  <g fill="#ff2133" transform="translate(307.82, 132.75) rotate(0, 11, 23)"><text font-family="&quot;Caveat Brush&quot;" font-size="28px" text-anchor="start" alignment-baseline="central" text-align="left" y="18.2">B</text></g>
  <g fill="#ff2133" transform="translate(230.52, 133.60) rotate(0, 20, 23)"><text font-family="&quot;Caveat Brush&quot;" font-size="28px" text-anchor="start" alignment-baseline="central" text-align="left" y="18.2">A/B</text></g>
<!-- svg-source:tldraw -->
<!-- payload-type:application/vnd.tldraw+json --><!-- payload-version:2 --><!-- payload-start -->

{
  "document": {
    "id": "doc",
    "name": "New Document",
    "version": 14,
    "pages": {
      "page": {
        "id": "page",
        "name": "Page 1",
        "childIndex": 1,
        "shapes": {
          "f3b255a5-3d4f-45e8-0a90-af7a422c4ddc": {
            "id": "f3b255a5-3d4f-45e8-0a90-af7a422c4ddc",
            "type": "rectangle",
            "name": "Rectangle",
            "parentId": "page",
            "childIndex": 6,
            "point": [
              12.07,
              278.08
            ],
            "size": [
              473.09,
              3.24
            ],
            "rotation": 0,
            "style": {
              "color": "blue",
              "size": "small",
              "isFilled": false,
              "dash": "dashed",
              "scale": 1
            }
          },
          "1bce866f-4156-4c37-238f-8995a146c0b4": {
            "id": "1bce866f-4156-4c37-238f-8995a146c0b4",
            "type": "rectangle",
            "name": "Rectangle",
            "parentId": "page",
            "childIndex": 7,
            "point": [
              486.47,
              281.94
            ],
            "size": [
              4.04,
              278.44
            ],
            "rotation": 0,
            "style": {
              "color": "blue",
              "size": "small",
              "isFilled": false,
              "dash": "dashed",
              "scale": 1
            }
          },
          "4a7ea5f9-ad33-4bba-24bd-500ae3ea802f": {
            "id": "4a7ea5f9-ad33-4bba-24bd-500ae3ea802f",
            "type": "rectangle",
            "name": "Rectangle",
            "parentId": "page",
            "childIndex": 8,
            "point": [
              5.69,
              278.4
            ],
            "size": [
              4.52,
              280.18
            ],
            "rotation": 0,
            "style": {
              "color": "blue",
              "size": "small",
              "isFilled": false,
              "dash": "dashed",
              "scale": 1
            }
          },
          "8b4b594b-882b-4ff7-0a35-52133af8c22a": {
            "id": "8b4b594b-882b-4ff7-0a35-52133af8c22a",
            "type": "rectangle",
            "name": "Rectangle",
            "parentId": "page",
            "childIndex": 9,
            "point": [
              14.98,
              555.12
            ],
            "size": [
              467.81,
              4.26
            ],
            "rotation": 0,
            "style": {
              "color": "blue",
              "size": "small",
              "isFilled": false,
              "dash": "dashed",
              "scale": 1
            }
          },
          "d152e8fc-472c-4c2e-1cc4-a616ca1973d3": {
            "id": "d152e8fc-472c-4c2e-1cc4-a616ca1973d3",
            "type": "arrow",
            "name": "Arrow",
            "parentId": "page",
            "childIndex": 10,
            "point": [
              205.92331591145816,
              557.1543172494362,
              0.5
            ],
            "rotation": 0,
            "bend": 0,
            "handles": {
              "start": {
                "id": "start",
                "index": 0,
                "point": [
                  0,
                  0
                ],
                "canBind": true
              },
              "end": {
                "id": "end",
                "index": 1,
                "point": [
                  1,
                  1
                ],
                "canBind": true
              },
              "bend": {
                "id": "bend",
                "index": 2,
                "point": [
                  0.5,
                  0.5
                ]
              }
            },
            "decorations": {
              "end": "arrow"
            },
            "style": {
              "color": "blue",
              "size": "small",
              "isFilled": false,
              "dash": "dashed",
              "scale": 1
            }
          },
          "b5d2d0a1-3986-4a14-3092-d47a4be36565": {
            "id": "b5d2d0a1-3986-4a14-3092-d47a4be36565",
            "type": "ellipse",
            "name": "Ellipse",
            "parentId": "page",
            "childIndex": 11,
            "point": [
              206.3,
              332.87
            ],
            "radius": [
              87.75958960395525,
              87.75958960395525
            ],
            "rotation": 0,
            "style": {
              "color": "red",
              "size": "small",
              "isFilled": false,
              "dash": "draw",
              "scale": 1
            }
          },
          "61999f3c-0a91-426c-1a0b-62b649a26f88": {
            "id": "61999f3c-0a91-426c-1a0b-62b649a26f88",
            "type": "ellipse",
            "name": "Ellipse",
            "parentId": "page",
            "childIndex": 12,
            "point": [
              101.6,
              333.61
            ],
            "radius": [
              86.88695454773182,
              86.88695454773182
            ],
            "rotation": 0,
            "style": {
              "color": "green",
              "size": "small",
              "isFilled": false,
              "dash": "draw",
              "scale": 1
            }
          },
          "026700e9-f1f9-4a13-1bad-3ccac44243fa": {
            "id": "026700e9-f1f9-4a13-1bad-3ccac44243fa",
            "type": "text",
            "name": "Text",
            "parentId": "page",
            "childIndex": 13,
            "point": [
              166.59,
              395.36
            ],
            "rotation": 0,
            "text": "A",
            "style": {
              "color": "red",
              "size": "small",
              "isFilled": false,
              "dash": "draw",
              "scale": 1,
              "font": "script",
              "textAlign": "start"
            }
          },
          "b8de681e-003e-428a-2c9b-7562b217a188": {
            "id": "b8de681e-003e-428a-2c9b-7562b217a188",
            "type": "text",
            "name": "Text",
            "parentId": "page",
            "childIndex": 14,
            "point": [
              297.51,
              394.83
            ],
            "rotation": 0,
            "text": "B",
            "style": {
              "color": "red",
              "size": "small",
              "isFilled": false,
              "dash": "draw",
              "scale": 1,
              "font": "script",
              "textAlign": "start"
            }
          },
          "f840100a-c9fb-4adb-1ab2-9d7b9aafb176": {
            "id": "f840100a-c9fb-4adb-1ab2-9d7b9aafb176",
            "type": "text",
            "name": "Text",
            "parentId": "page",
            "childIndex": 15,
            "point": [
              220.21,
              395.68
            ],
            "rotation": 0,
            "text": "A/B",
            "style": {
              "color": "red",
              "size": "small",
              "isFilled": false,
              "dash": "draw",
              "scale": 1,
              "font": "script",
              "textAlign": "start"
            }
          }
        },
        "bindings": {}
      }
    },
    "pageStates": {
      "page": {
        "id": "page",
        "selectedIds": [
          "b8de681e-003e-428a-2c9b-7562b217a188"
        ],
        "camera": {
          "point": [
            -29.24,
            -182.55
          ],
          "zoom": 0.9403780290181252
        },
        "editingId": null,
        "hoveredId": "b8de681e-003e-428a-2c9b-7562b217a188"
      }
    }
  },
  "assets": {}
}
<!-- payload-end -->
</svg>